<svg width="56" height="18" viewBox="0 0 56 18" fill="none" xmlns="http://www.w3.org/2000/svg">
<path d="M16.4048 0.34491L11.7269 12.1796L9.82994 2.11257C9.61437 0.991617 8.73054 0.34491 7.76048 0.34491H0.107784L0 0.840719C1.57365 1.18563 3.36287 1.74611 4.44072 2.32814C5.10898 2.69461 5.28144 2.99641 5.51856 3.85868L9.09701 17.7413H13.8611L21.1473 0.34491H16.4048ZM23.0659 0.34491L19.3365 17.7198H23.8419L27.5713 0.323353H23.0659V0.34491ZM48.8695 5.04431L50.2275 11.576H46.4982L48.8695 5.04431ZM48.2012 0.34491C47.3389 0.34491 46.606 0.840719 46.2826 1.61677L39.5353 17.7413H44.2563L45.2048 15.1329H50.982L51.521 17.7413H55.6814L52.0383 0.34491H48.2012ZM28.8 5.77725C28.7784 8.27784 31.0419 9.67904 32.7449 10.5198C34.491 11.382 35.0946 11.921 35.0731 12.6754C35.0515 13.8395 33.6719 14.3569 32.3784 14.3784C30.115 14.4216 28.8 13.7748 27.7653 13.279L26.9461 17.0731C28.0024 17.5473 29.9425 17.9784 31.9473 18C36.6683 18 39.7725 15.6719 39.7725 12.0503C39.794 7.45868 33.4347 7.2 33.4778 5.1521C33.4994 4.52695 34.0814 3.85868 35.3964 3.68623C36.0431 3.6 37.8108 3.53533 39.8371 4.46228L40.6347 0.776048C39.5569 0.388024 38.1557 0 36.4311 0C31.9473 0.0215569 28.8216 2.39281 28.8 5.77725Z" fill="#064A9B"/>
</svg>
