<svg width="134" height="48" viewBox="0 0 144 48" fill="none" xmlns="http://www.w3.org/2000/svg">
<path d="M132.533 0.000156H11.4737C11.0325 0.000156 10.5965 0.000156 10.1564 0.002556C9.78796 0.004956 9.42249 0.011928 9.05054 0.017796C8.24249 0.0272782 7.43635 0.0981675 6.63911 0.229848C5.84299 0.364395 5.07181 0.618055 4.35165 0.982248C3.63237 1.34952 2.97514 1.82676 2.40381 2.39664C1.82948 2.96492 1.35074 3.62178 0.98598 4.34195C0.620217 5.06069 0.366595 5.83088 0.233875 6.62593C0.0998928 7.41998 0.0277959 8.22318 0.018231 9.02833C0.00706378 9.39625 0.00588447 9.7654 0 10.1334V37.8705C0.00588447 38.2431 0.00706378 38.604 0.018231 38.9768C0.0277988 39.7819 0.0998957 40.585 0.233875 41.379C0.366228 42.1745 0.619865 42.9452 0.98598 43.6642C1.35057 44.382 1.82939 45.0362 2.40381 45.6014C2.97298 46.1738 3.63063 46.6513 4.35165 47.0158C5.0718 47.381 5.8429 47.6361 6.63911 47.7728C7.43648 47.9034 8.24254 47.9743 9.05054 47.9849C9.42249 47.9931 9.78796 47.9978 10.1564 47.9978C10.5965 48.0002 11.0325 48.0002 11.4737 48.0002H132.533C132.965 48.0002 133.405 48.0002 133.837 47.9978C134.204 47.9978 134.58 47.9931 134.947 47.9849C135.753 47.9749 136.558 47.9039 137.353 47.7728C138.152 47.6352 138.926 47.3801 139.65 47.0158C140.37 46.6511 141.027 46.1736 141.596 45.6014C142.169 45.034 142.648 44.3803 143.018 43.6642C143.381 42.9447 143.632 42.1741 143.763 41.379C143.897 40.5849 143.971 39.7819 143.986 38.9768C143.991 38.604 143.991 38.2431 143.991 37.8705C144 37.4345 144 37.001 144 36.5579V11.4435C144 11.0041 144 10.5681 143.991 10.1334C143.991 9.7654 143.991 9.39625 143.986 9.02828C143.971 8.22306 143.897 7.42004 143.763 6.62588C143.632 5.83129 143.381 5.06116 143.018 4.3419C142.275 2.89839 141.097 1.72339 139.65 0.98214C138.926 0.618837 138.152 0.365245 137.353 0.22974C136.558 0.0974794 135.753 0.0265653 134.947 0.017628C134.58 0.011772 134.204 0.00474 133.837 0.0024C133.405 0 132.965 0 132.533 0V0.000156Z" fill="#A6A6A6"/>
<path d="M10.1658 46.9501C9.79889 46.9501 9.44085 46.9454 9.07682 46.9373C8.32271 46.9275 7.57037 46.8621 6.82595 46.7416C6.13183 46.6224 5.4594 46.4008 4.83086 46.0841C4.20809 45.77 3.64007 45.3581 3.14856 44.8642C2.64994 44.3761 2.23481 43.81 1.91964 43.1884C1.60098 42.5627 1.38046 41.892 1.26574 41.1997C1.14186 40.4559 1.07483 39.7037 1.06524 38.9497C1.0576 38.6966 1.04761 37.854 1.04761 37.854V10.1333C1.04761 10.1333 1.05825 9.30364 1.0653 9.05989C1.07448 8.3071 1.14112 7.55611 1.26463 6.8134C1.37956 6.11923 1.60026 5.44662 1.91908 4.81888C2.2331 4.19766 2.64592 3.63116 3.14154 3.14134C3.6366 2.64687 4.20644 2.23285 4.83027 1.91438C5.45737 1.59864 6.12852 1.3786 6.82124 1.26165C7.5681 1.13993 8.32306 1.07412 9.07978 1.06478L10.1664 1.05013H133.923L135.023 1.06537C135.772 1.07424 136.52 1.13947 137.26 1.26047C137.96 1.3789 138.638 1.60046 139.273 1.91789C140.522 2.55971 141.539 3.57512 142.181 4.82181C142.495 5.44522 142.712 6.11233 142.825 6.80051C142.95 7.54931 143.02 8.30621 143.035 9.06517C143.038 9.40501 143.038 9.77005 143.038 10.1333C143.048 10.5833 143.048 11.0116 143.048 11.4435V36.5579C143.048 36.9938 143.048 37.4192 143.038 37.8481C143.038 38.2384 143.038 38.5958 143.033 38.9638C143.019 39.7092 142.951 40.4526 142.828 41.188C142.715 41.8852 142.496 42.5611 142.177 43.192C141.86 43.8069 141.447 44.368 140.954 44.8548C140.462 45.3513 139.893 45.7657 139.269 46.0818C138.637 46.401 137.959 46.6234 137.26 46.7416C136.516 46.8627 135.764 46.9281 135.01 46.9373C134.657 46.9454 134.287 46.9501 133.929 46.9501L132.623 46.9525L10.1658 46.9501Z" fill="#0A0A0A"/>
<path d="M29.7226 24.3609C29.7355 23.3593 30.0015 22.3773 30.496 21.5061C30.9904 20.635 31.6972 19.9031 32.5505 19.3785C32.0084 18.6043 31.2932 17.9671 30.4619 17.5177C29.6305 17.0682 28.7057 16.8188 27.7611 16.7893C25.746 16.5777 23.7924 17.995 22.7656 17.995C21.7189 17.995 20.1379 16.8103 18.4354 16.8453C17.3342 16.8809 16.261 17.2011 15.3203 17.7748C14.3797 18.3484 13.6037 19.156 13.0679 20.1187C10.7471 24.1368 12.4782 30.0421 14.7013 33.29C15.8136 34.8804 17.1135 36.657 18.8145 36.594C20.479 36.5249 21.1006 35.5326 23.1098 35.5326C25.1003 35.5326 25.6835 36.594 27.419 36.5539C29.205 36.5249 30.3303 34.9564 31.4036 33.351C32.2028 32.2177 32.8177 30.9653 33.2257 29.6399C32.188 29.2011 31.3025 28.4665 30.6796 27.5277C30.0566 26.5889 29.7238 25.4876 29.7226 24.3609Z" fill="#FAFAFA"/>
<path d="M26.4447 14.6532C27.4185 13.4841 27.8983 11.9815 27.7821 10.4644C26.2943 10.6207 24.92 11.3318 23.933 12.456C23.4505 13.0052 23.0809 13.6441 22.8454 14.3362C22.6099 15.0283 22.5131 15.7601 22.5606 16.4896C23.3047 16.4973 24.0409 16.336 24.7137 16.0179C25.3865 15.6998 25.9784 15.2332 26.4447 14.6532Z" fill="#FAFAFA"/>
<path d="M50.7627 32.5677H45.0827L43.7186 36.5954H41.3127L46.6928 21.6938H49.1924L54.5725 36.5954H52.1256L50.7627 32.5677ZM45.6709 30.7091H50.1733L47.9538 24.1724H47.8917L45.6709 30.7091Z" fill="#FAFAFA"/>
<path d="M66.1915 31.1638C66.1915 34.54 64.3845 36.7091 61.6576 36.7091C60.9668 36.7452 60.2798 36.5861 59.6752 36.2499C59.0707 35.9138 58.573 35.4142 58.2392 34.8083H58.1876V40.1896H55.9575V25.731H58.1161V27.538H58.1572C58.5063 26.935 59.0124 26.438 59.6215 26.0998C60.2307 25.7616 60.9202 25.5948 61.6165 25.6173C64.3739 25.6173 66.1915 27.797 66.1915 31.1638ZM63.8993 31.1638C63.8993 28.9642 62.7626 27.5181 61.0282 27.5181C59.3243 27.5181 58.1783 28.9947 58.1783 31.1638C58.1783 33.3529 59.3243 34.8189 61.0282 34.8189C62.7626 34.8189 63.8993 33.3833 63.8993 31.1638Z" fill="#FAFAFA"/>
<path d="M78.1495 31.1638C78.1495 34.54 76.3425 36.7091 73.6156 36.7091C72.9248 36.7453 72.2378 36.5861 71.6332 36.25C71.0287 35.9138 70.531 35.4142 70.1972 34.8083H70.1456V40.1896H67.9155V25.731H70.0741V27.538H70.1151C70.4643 26.9351 70.9704 26.438 71.5795 26.0998C72.1887 25.7616 72.8781 25.5949 73.5745 25.6173C76.332 25.6173 78.1495 27.797 78.1495 31.1638ZM75.8574 31.1638C75.8574 28.9642 74.7206 27.5181 72.9863 27.5181C71.2824 27.5181 70.1363 28.9947 70.1363 31.1638C70.1363 33.3529 71.2824 34.8189 72.9863 34.8189C74.7206 34.8189 75.8574 33.3833 75.8574 31.1638H75.8574Z" fill="#FAFAFA"/>
<path d="M86.0526 32.4435C86.2179 33.9212 87.6534 34.8915 89.6151 34.8915C91.4948 34.8915 92.8472 33.9212 92.8472 32.5887C92.8472 31.4321 92.0315 30.7395 90.1003 30.2649L88.169 29.7997C85.4327 29.1387 84.1624 27.859 84.1624 25.7825C84.1624 23.2114 86.403 21.4454 89.5847 21.4454C92.7335 21.4454 94.8921 23.2114 94.9647 25.7825H92.7135C92.5788 24.2954 91.3495 23.3977 89.553 23.3977C87.7565 23.3977 86.5272 24.3059 86.5272 25.6278C86.5272 26.6813 87.3124 27.3012 89.2331 27.7758L90.8749 28.1789C93.9323 28.902 95.2026 30.1301 95.2026 32.3098C95.2026 35.0977 92.9819 36.8438 89.4499 36.8438C86.1452 36.8438 83.9139 35.1387 83.7698 32.4434L86.0526 32.4435Z" fill="#FAFAFA"/>
<path d="M100.015 23.1599V25.731H102.081V27.497H100.015V33.4864C100.015 34.4169 100.429 34.8505 101.337 34.8505C101.583 34.8462 101.827 34.829 102.071 34.7989V36.5544C101.663 36.6307 101.247 36.6652 100.832 36.6575C98.6326 36.6575 97.7747 35.8313 97.7747 33.7243V27.497H96.1951V25.731H97.7747V23.1599H100.015Z" fill="#FAFAFA"/>
<path d="M103.278 31.1638C103.278 27.7455 105.291 25.5974 108.431 25.5974C111.581 25.5974 113.585 27.7454 113.585 31.1638C113.585 34.5916 111.591 36.7302 108.431 36.7302C105.271 36.7302 103.278 34.5915 103.278 31.1638ZM111.312 31.1638C111.312 28.8189 110.238 27.4349 108.431 27.4349C106.624 27.4349 105.55 28.8294 105.55 31.1638C105.55 33.5181 106.624 34.8916 108.431 34.8916C110.238 34.8916 111.312 33.5181 111.312 31.1638H111.312Z" fill="#FAFAFA"/>
<path d="M115.423 25.731H117.55V27.5802H117.602C117.746 27.0027 118.084 26.4923 118.56 26.1348C119.036 25.7773 119.62 25.5946 120.215 25.6173C120.472 25.6164 120.728 25.6443 120.979 25.7005V27.7865C120.655 27.6873 120.316 27.6418 119.977 27.6517C119.653 27.6385 119.33 27.6957 119.03 27.8191C118.731 27.9426 118.461 28.1295 118.24 28.3669C118.02 28.6044 117.853 28.8868 117.752 29.1949C117.65 29.5029 117.617 29.8291 117.653 30.1513V36.5954H115.423L115.423 25.731Z" fill="#FAFAFA"/>
<path d="M131.261 33.4044C130.961 35.3767 129.04 36.7302 126.583 36.7302C123.422 36.7302 121.461 34.6126 121.461 31.2153C121.461 27.8075 123.433 25.5974 126.489 25.5974C129.495 25.5974 131.385 27.6622 131.385 30.9564V31.7204H123.712V31.8552C123.676 32.255 123.727 32.6578 123.859 33.0368C123.991 33.4158 124.202 33.7624 124.479 34.0534C124.755 34.3445 125.09 34.5734 125.462 34.725C125.834 34.8765 126.233 34.9473 126.635 34.9325C127.162 34.9819 127.69 34.8599 128.142 34.5845C128.594 34.3092 128.946 33.8953 129.144 33.4044L131.261 33.4044ZM123.722 30.1618H129.154C129.174 29.8023 129.12 29.4425 128.994 29.1051C128.868 28.7676 128.674 28.4598 128.424 28.2009C128.174 27.942 127.873 27.7376 127.54 27.6005C127.207 27.4634 126.849 27.3967 126.489 27.4044C126.126 27.4022 125.766 27.472 125.43 27.6097C125.094 27.7474 124.789 27.9503 124.531 28.2066C124.274 28.463 124.07 28.7678 123.931 29.1033C123.792 29.4389 123.721 29.7987 123.722 30.1618V30.1618Z" fill="#FAFAFA"/>
<path d="M45.3915 10.4773C45.859 10.4438 46.3282 10.5144 46.7651 10.6841C47.2021 10.8539 47.5959 11.1184 47.9182 11.4588C48.2405 11.7991 48.4832 12.2068 48.6289 12.6523C48.7746 13.0978 48.8196 13.5701 48.7606 14.0351C48.7606 16.3226 47.5243 17.6375 45.3915 17.6375H42.8052V10.4773H45.3915ZM43.9173 16.6249H45.2673C45.6014 16.6449 45.9357 16.5901 46.2459 16.4646C46.5562 16.3391 46.8345 16.1459 47.0607 15.8992C47.2869 15.6526 47.4553 15.3585 47.5535 15.0386C47.6517 14.7187 47.6774 14.3808 47.6286 14.0497C47.6738 13.7199 47.6456 13.3842 47.5458 13.0666C47.4461 12.749 47.2774 12.4574 47.0517 12.2127C46.826 11.968 46.549 11.7762 46.2405 11.6511C45.932 11.526 45.5997 11.4707 45.2673 11.4892H43.9173V16.6249Z" fill="#FAFAFA"/>
<path d="M50.0169 14.9333C49.983 14.5782 50.0236 14.22 50.1362 13.8815C50.2488 13.543 50.4309 13.2318 50.6708 12.9678C50.9108 12.7038 51.2032 12.4929 51.5295 12.3486C51.8557 12.2042 52.2085 12.1297 52.5652 12.1297C52.9219 12.1297 53.2747 12.2042 53.6009 12.3486C53.9271 12.4929 54.2196 12.7038 54.4595 12.9678C54.6994 13.2318 54.8816 13.543 54.9942 13.8815C55.1068 14.22 55.1474 14.5782 55.1134 14.9333C55.148 15.2888 55.1079 15.6476 54.9956 15.9866C54.8833 16.3256 54.7013 16.6374 54.4613 16.9019C54.2213 17.1664 53.9286 17.3778 53.6021 17.5224C53.2755 17.6671 52.9223 17.7418 52.5652 17.7418C52.208 17.7418 51.8548 17.6671 51.5283 17.5224C51.2017 17.3778 50.9091 17.1664 50.6691 16.9019C50.4291 16.6374 50.2471 16.3256 50.1348 15.9866C50.0225 15.6476 49.9823 15.2888 50.0169 14.9333ZM54.0165 14.9333C54.0165 13.7621 53.4904 13.0771 52.5669 13.0771C51.64 13.0771 51.1185 13.7621 51.1185 14.9334C51.1185 16.114 51.64 16.7937 52.5669 16.7937C53.4904 16.7937 54.0165 16.1093 54.0165 14.9333H54.0165Z" fill="#FAFAFA"/>
<path d="M61.888 17.6374H60.7817L59.6649 13.6577H59.5806L58.4685 17.6374H57.3728L55.8833 12.2339H56.9649L57.9329 16.3571H58.0126L59.1235 12.2339H60.1466L61.2575 16.3571H61.3419L62.3052 12.2339H63.3716L61.888 17.6374Z" fill="#FAFAFA"/>
<path d="M64.6243 12.2339H65.6508V13.0923H65.7305C65.8657 12.784 66.0937 12.5256 66.3828 12.353C66.6718 12.1804 67.0075 12.1023 67.343 12.1296C67.6059 12.1098 67.8699 12.1495 68.1155 12.2456C68.361 12.3417 68.5817 12.4918 68.7613 12.6848C68.941 12.8779 69.0749 13.1088 69.1531 13.3606C69.2313 13.6124 69.2519 13.8785 69.2133 14.1394V17.6374H68.1469V14.4072C68.1469 13.5388 67.7696 13.107 66.9809 13.107C66.8024 13.0986 66.6242 13.129 66.4585 13.196C66.2929 13.263 66.1436 13.365 66.0211 13.4951C65.8985 13.6252 65.8056 13.7802 65.7485 13.9495C65.6915 14.1189 65.6718 14.2986 65.6907 14.4763V17.6374H64.6243L64.6243 12.2339Z" fill="#FAFAFA"/>
<path d="M70.9126 10.1245H71.979V17.6374H70.9126V10.1245Z" fill="#FAFAFA"/>
<path d="M73.4615 14.9333C73.4275 14.5782 73.4682 14.2199 73.5808 13.8814C73.6935 13.5429 73.8756 13.2317 74.1156 12.9677C74.3555 12.7037 74.648 12.4928 74.9742 12.3485C75.3005 12.2041 75.6533 12.1296 76.01 12.1296C76.3668 12.1296 76.7196 12.2041 77.0458 12.3485C77.3721 12.4928 77.6645 12.7037 77.9045 12.9677C78.1444 13.2317 78.3266 13.5429 78.4392 13.8814C78.5518 14.2199 78.5925 14.5782 78.5585 14.9333C78.5931 15.2888 78.5529 15.6476 78.4406 15.9866C78.3283 16.3257 78.1462 16.6374 77.9062 16.9019C77.6662 17.1664 77.3735 17.3778 77.0469 17.5224C76.7204 17.667 76.3672 17.7417 76.01 17.7417C75.6529 17.7417 75.2997 17.667 74.9731 17.5224C74.6465 17.3778 74.3538 17.1664 74.1138 16.9019C73.8738 16.6374 73.6918 16.3257 73.5794 15.9866C73.4671 15.6476 73.4269 15.2888 73.4615 14.9333ZM77.4611 14.9333C77.4611 13.762 76.9349 13.0771 76.0115 13.0771C75.0845 13.0771 74.5631 13.762 74.5631 14.9333C74.5631 16.114 75.0846 16.7937 76.0115 16.7937C76.9349 16.7937 77.4611 16.1093 77.4611 14.9333H77.4611Z" fill="#FAFAFA"/>
<path d="M79.6812 16.1093C79.6812 15.1366 80.4054 14.5759 81.6909 14.4962L83.1546 14.4118V13.9454C83.1546 13.3747 82.7772 13.0525 82.0483 13.0525C81.453 13.0525 81.0405 13.271 80.9222 13.6531H79.8897C79.9987 12.7249 80.8718 12.1296 82.0976 12.1296C83.4522 12.1296 84.2163 12.804 84.2163 13.9454V17.6374H83.1897V16.8781H83.1054C82.9341 17.1504 82.6936 17.3725 82.4085 17.5216C82.1233 17.6706 81.8037 17.7413 81.4823 17.7265C81.2555 17.7501 81.0262 17.7259 80.8093 17.6554C80.5924 17.585 80.3926 17.4699 80.2229 17.3175C80.0532 17.1651 79.9174 16.9789 79.824 16.7708C79.7307 16.5627 79.682 16.3374 79.6812 16.1093ZM83.1546 15.6476V15.1958L81.8351 15.2802C81.0909 15.33 80.7534 15.5831 80.7534 16.0595C80.7534 16.5458 81.1753 16.8288 81.7554 16.8288C81.9254 16.846 82.0971 16.8289 82.2603 16.7784C82.4235 16.7278 82.5749 16.645 82.7054 16.5348C82.836 16.4246 82.943 16.2893 83.0202 16.1368C83.0973 15.9844 83.143 15.818 83.1546 15.6476Z" fill="#FAFAFA"/>
<path d="M85.6179 14.9333C85.6179 13.2259 86.4957 12.1443 87.8609 12.1443C88.1986 12.1287 88.5337 12.2096 88.8272 12.3775C89.1206 12.5453 89.3602 12.7933 89.5179 13.0923H89.5976V10.1245H90.664V17.6374H89.6421V16.7837H89.5578C89.3878 17.0807 89.1399 17.3255 88.8408 17.4917C88.5417 17.6579 88.2028 17.7391 87.8609 17.7265C86.4863 17.7265 85.6179 16.6449 85.6179 14.9333ZM86.7195 14.9333C86.7195 16.0794 87.2598 16.7691 88.1633 16.7691C89.0621 16.7691 89.6176 16.0695 89.6176 14.938C89.6176 13.8119 89.0562 13.1023 88.1633 13.1023C87.2656 13.1023 86.7195 13.7966 86.7195 14.9333H86.7195Z" fill="#FAFAFA"/>
<path d="M95.076 14.9333C95.042 14.5782 95.0827 14.22 95.1953 13.8815C95.3079 13.543 95.49 13.2318 95.7299 12.9678C95.9699 12.7038 96.2623 12.4929 96.5885 12.3486C96.9147 12.2042 97.2675 12.1297 97.6243 12.1297C97.981 12.1297 98.3338 12.2042 98.66 12.3486C98.9862 12.4929 99.2787 12.7038 99.5186 12.9678C99.7585 13.2318 99.9406 13.543 100.053 13.8815C100.166 14.22 100.206 14.5782 100.173 14.9333C100.207 15.2888 100.167 15.6476 100.055 15.9866C99.9424 16.3256 99.7604 16.6374 99.5204 16.9019C99.2804 17.1664 98.9877 17.3778 98.6611 17.5224C98.3346 17.6671 97.9814 17.7418 97.6243 17.7418C97.2671 17.7418 96.9139 17.6671 96.5874 17.5224C96.2608 17.3778 95.9681 17.1664 95.7281 16.9019C95.4882 16.6374 95.3062 16.3256 95.1938 15.9866C95.0815 15.6476 95.0414 15.2888 95.076 14.9333ZM99.0756 14.9333C99.0756 13.7621 98.5494 13.0771 97.626 13.0771C96.6991 13.0771 96.1776 13.7621 96.1776 14.9334C96.1776 16.114 96.6991 16.7937 97.626 16.7937C98.5495 16.7937 99.0756 16.1093 99.0756 14.9333Z" fill="#FAFAFA"/>
<path d="M101.604 12.2339H102.63V13.0923H102.71C102.845 12.784 103.073 12.5256 103.362 12.353C103.651 12.1804 103.987 12.1023 104.322 12.1296C104.585 12.1098 104.849 12.1495 105.095 12.2456C105.34 12.3417 105.561 12.4918 105.741 12.6848C105.92 12.8779 106.054 13.1088 106.132 13.3606C106.211 13.6124 106.231 13.8785 106.193 14.1394V17.6374H105.126V14.4072C105.126 13.5388 104.749 13.107 103.96 13.107C103.782 13.0986 103.603 13.129 103.438 13.196C103.272 13.263 103.123 13.365 103 13.4951C102.878 13.6252 102.785 13.7802 102.728 13.9495C102.671 14.1189 102.651 14.2986 102.67 14.4763V17.6374H101.604V12.2339Z" fill="#FAFAFA"/>
<path d="M112.218 10.8886V12.2585H113.389V13.1568H112.218V15.9353C112.218 16.5013 112.452 16.7491 112.982 16.7491C113.118 16.7487 113.254 16.7405 113.389 16.7245V17.6128C113.198 17.6471 113.004 17.6653 112.809 17.6673C111.623 17.6673 111.151 17.2501 111.151 16.2083V13.1567H110.293V12.2585H111.151V10.8886H112.218Z" fill="#FAFAFA"/>
<path d="M114.846 10.1245H115.903V13.1023H115.987C116.129 12.7911 116.363 12.5312 116.658 12.358C116.953 12.1847 117.294 12.1066 117.635 12.1343C117.896 12.1201 118.158 12.1637 118.4 12.2622C118.643 12.3606 118.861 12.5114 119.039 12.7038C119.217 12.8963 119.35 13.1255 119.429 13.3753C119.508 13.625 119.531 13.8891 119.496 14.1487V17.6374H118.428V14.4118C118.428 13.5487 118.026 13.1116 117.273 13.1116C117.089 13.0966 116.905 13.1218 116.733 13.1855C116.56 13.2491 116.403 13.3497 116.274 13.4802C116.144 13.6107 116.045 13.7679 115.982 13.9409C115.92 14.1138 115.896 14.2984 115.912 14.4815V17.6374H114.846L114.846 10.1245Z" fill="#FAFAFA"/>
<path d="M125.714 16.1784C125.569 16.6723 125.255 17.0995 124.827 17.3853C124.399 17.671 123.884 17.7972 123.372 17.7417C123.016 17.7511 122.662 17.6829 122.335 17.5419C122.008 17.4009 121.716 17.1904 121.478 16.925C121.241 16.6596 121.064 16.3458 120.96 16.0052C120.856 15.6646 120.827 15.3054 120.876 14.9527C120.829 14.5988 120.858 14.2389 120.962 13.8973C121.065 13.5557 121.241 13.2404 121.478 12.9727C121.714 12.705 122.005 12.4912 122.331 12.3457C122.657 12.2003 123.01 12.1266 123.367 12.1296C124.871 12.1296 125.778 13.1568 125.778 14.8536V15.2257H121.962V15.2855C121.946 15.4838 121.971 15.6834 122.036 15.8715C122.101 16.0596 122.204 16.232 122.34 16.3778C122.475 16.5235 122.639 16.6394 122.822 16.7178C123.005 16.7963 123.202 16.8357 123.401 16.8335C123.657 16.8641 123.915 16.8182 124.144 16.7015C124.373 16.5849 124.562 16.4028 124.687 16.1784L125.714 16.1784ZM121.962 14.437H124.692C124.705 14.2557 124.68 14.0735 124.619 13.9023C124.558 13.731 124.462 13.5744 124.337 13.4426C124.211 13.3108 124.06 13.2066 123.892 13.1368C123.724 13.067 123.543 13.0331 123.362 13.0372C123.177 13.0349 122.994 13.0696 122.823 13.1391C122.652 13.2086 122.497 13.3117 122.367 13.4421C122.236 13.5726 122.133 13.7278 122.064 13.8987C121.995 14.0696 121.96 14.2526 121.962 14.437H121.962Z" fill="#FAFAFA"/>
</svg>
