<svg width="21" height="21" viewBox="0 0 22 22" fill="none" xmlns="http://www.w3.org/2000/svg">
<path fill-rule="evenodd" clip-rule="evenodd" d="M6.45662 0.135C4.66595 0.215795 3.11389 0.65362 1.86063 1.90158C0.603006 3.1561 0.170662 4.71414 0.0896656 6.48618C0.0393166 7.59221 -0.255115 15.948 0.598628 18.1393C1.17436 19.6176 2.3083 20.7542 3.80016 21.3318C4.49629 21.6026 5.29093 21.786 6.45662 21.8395C16.2035 22.2806 19.8166 22.0404 21.3402 18.1393C21.6106 17.4449 21.7966 16.6511 21.8481 15.4883C22.2935 5.71644 21.7758 3.59829 20.0771 1.90158C18.7297 0.557538 17.1448 -0.357417 6.45662 0.135ZM6.54605 19.8742C5.47887 19.8262 4.89986 19.6482 4.51348 19.4986C3.54153 19.1209 2.81147 18.3937 2.43604 17.4274C1.78589 15.7624 2.00151 7.85425 2.05952 6.57463C2.11644 5.3212 2.37037 4.17587 3.25476 3.29149C4.3493 2.19966 5.76345 1.66466 15.3921 2.09921C16.6487 2.15598 17.7968 2.40929 18.6834 3.29149C19.778 4.38332 20.3209 5.80816 19.8787 15.3999C19.8305 16.4644 19.6521 17.042 19.5021 17.4274C18.5116 19.9659 16.2327 20.3186 6.54605 19.8742ZM15.499 5.15853C15.499 5.88133 16.0867 6.46873 16.8124 6.46873C17.5381 6.46873 18.127 5.88133 18.127 5.15853C18.127 4.43574 17.5381 3.84834 16.8124 3.84834C16.0867 3.84834 15.499 4.43574 15.499 5.15853ZM5.34894 10.9867C5.34894 14.0832 7.86529 16.5933 10.9694 16.5933C14.0735 16.5933 16.5899 14.0832 16.5899 10.9867C16.5899 7.89029 14.0735 5.38126 10.9694 5.38126C7.86529 5.38126 5.34894 7.89029 5.34894 10.9867ZM7.32147 10.9867C7.32147 8.97776 8.95453 7.34766 10.9696 7.34766C12.9846 7.34766 14.6177 8.97776 14.6177 10.9867C14.6177 12.9968 12.9846 14.6269 10.9696 14.6269C8.95453 14.6269 7.32147 12.9968 7.32147 10.9867Z" fill="#FAFAFA"/>
</svg>
