<svg width="148" height="48" viewBox="0 0 162 48" fill="none" xmlns="http://www.w3.org/2000/svg">
<path d="M156 48H6C2.64 48 0 45.24 0 42V6C0 2.64 2.76 0 6 0H156C159.36 0 162 2.76 162 6V42C162 45.24 159.36 48 156 48Z" fill="#0A0A0A"/>
<path d="M156 0.96C158.76 0.96 161.04 3.24 161.04 6V42C161.04 44.76 158.76 47.04 156 47.04H6C3.24 47.04 0.96 44.76 0.96 42V6C0.96 3.24 3.24 0.96 6 0.96H156ZM156 0H6C2.64 0 0 2.76 0 6V42C0 45.36 2.76 48 6 48H156C159.36 48 162 45.24 162 42V6C162 2.76 159.36 0 156 0Z" fill="#A6A6A6"/>
<path d="M56.8797 12.24C56.8797 13.2 56.6397 14.04 56.0397 14.64C55.3197 15.36 54.4797 15.72 53.3997 15.72C52.3197 15.72 51.4797 15.36 50.7597 14.64C50.0397 13.92 49.6797 13.08 49.6797 12C49.6797 10.92 50.0397 10.08 50.7597 9.36003C51.4797 8.64003 52.3197 8.28003 53.3997 8.28003C53.8797 8.28003 54.3597 8.40003 54.8397 8.64003C55.3197 8.88003 55.6797 9.12003 55.9197 9.48003L55.3197 10.08C54.8397 9.48003 54.2397 9.24003 53.3997 9.24003C52.6797 9.24003 51.9597 9.48003 51.4797 10.08C50.8797 10.56 50.6397 11.28 50.6397 12.12C50.6397 12.96 50.8797 13.68 51.4797 14.16C52.0797 14.64 52.6797 15 53.3997 15C54.2397 15 54.8397 14.76 55.4397 14.16C55.7997 13.8 56.0397 13.32 56.0397 12.72H53.3997V11.88H56.8797C56.8797 11.88 56.8797 12.12 56.8797 12.24Z" fill="#FAFAFA" stroke="white" stroke-width="0.2" stroke-miterlimit="10"/>
<path d="M62.3992 9.24015H59.1592V11.5201H62.1592V12.3601H59.1592V14.6401H62.3992V15.6001H58.1992V8.40015H62.3992V9.24015Z" fill="#FAFAFA" stroke="white" stroke-width="0.2" stroke-miterlimit="10"/>
<path d="M66.3594 15.6001H65.3994V9.24015H63.3594V8.40015H68.3994V9.24015H66.3594V15.6001Z" fill="#FAFAFA" stroke="white" stroke-width="0.2" stroke-miterlimit="10"/>
<path d="M71.8799 15.6001V8.40015H72.8399V15.6001H71.8799Z" fill="#FAFAFA" stroke="white" stroke-width="0.2" stroke-miterlimit="10"/>
<path d="M76.9199 15.6001H75.9599V9.24015H73.9199V8.40015H78.8399V9.24015H76.7999V15.6001H76.9199Z" fill="#FAFAFA" stroke="white" stroke-width="0.2" stroke-miterlimit="10"/>
<path d="M88.32 14.64C87.6 15.36 86.76 15.72 85.68 15.72C84.6 15.72 83.76 15.36 83.04 14.64C82.32 13.92 81.96 13.08 81.96 12C81.96 10.92 82.32 10.08 83.04 9.36003C83.76 8.64003 84.6 8.28003 85.68 8.28003C86.76 8.28003 87.6 8.64003 88.32 9.36003C89.04 10.08 89.4 10.92 89.4 12C89.4 13.08 89.04 13.92 88.32 14.64ZM83.76 14.04C84.24 14.52 84.96 14.88 85.68 14.88C86.4 14.88 87.12 14.64 87.6 14.04C88.08 13.56 88.44 12.84 88.44 12C88.44 11.16 88.2 10.44 87.6 9.96003C87.12 9.48003 86.4 9.12003 85.68 9.12003C84.96 9.12003 84.24 9.36003 83.76 9.96003C83.28 10.44 82.92 11.16 82.92 12C82.92 12.84 83.16 13.56 83.76 14.04Z" fill="#FAFAFA" stroke="white" stroke-width="0.2" stroke-miterlimit="10"/>
<path d="M90.7197 15.6001V8.40015H91.7997L95.2797 14.0401V12.6001V8.40015H96.2397V15.6001H95.2797L91.5597 9.72015V11.1601V15.6001H90.7197Z" fill="#FAFAFA" stroke="white" stroke-width="0.2" stroke-miterlimit="10"/>
<path d="M81.7203 26.16C78.8403 26.16 76.5603 28.32 76.5603 31.32C76.5603 34.2 78.8403 36.48 81.7203 36.48C84.6003 36.48 86.8803 34.32 86.8803 31.32C86.8803 28.2 84.6003 26.16 81.7203 26.16ZM81.7203 34.32C80.1603 34.32 78.8403 33 78.8403 31.2C78.8403 29.4 80.1603 28.08 81.7203 28.08C83.2803 28.08 84.6003 29.28 84.6003 31.2C84.6003 33 83.2803 34.32 81.7203 34.32ZM70.5603 26.16C67.6803 26.16 65.4003 28.32 65.4003 31.32C65.4003 34.2 67.6803 36.48 70.5603 36.48C73.4403 36.48 75.7203 34.32 75.7203 31.32C75.7203 28.2 73.4403 26.16 70.5603 26.16ZM70.5603 34.32C69.0003 34.32 67.6803 33 67.6803 31.2C67.6803 29.4 69.0003 28.08 70.5603 28.08C72.1203 28.08 73.4403 29.28 73.4403 31.2C73.4403 33 72.1203 34.32 70.5603 34.32ZM57.2403 27.72V29.88H62.4003C62.2803 31.08 61.8003 32.04 61.2003 32.64C60.4803 33.36 59.2803 34.2 57.2403 34.2C54.0003 34.2 51.6003 31.68 51.6003 28.44C51.6003 25.2 54.1203 22.68 57.2403 22.68C58.9203 22.68 60.2403 23.4 61.2003 24.24L62.7603 22.68C61.4403 21.48 59.7603 20.52 57.3603 20.52C53.0403 20.52 49.3203 24.12 49.3203 28.44C49.3203 32.76 53.0403 36.36 57.3603 36.36C59.7603 36.36 61.4403 35.64 62.8803 34.08C64.3203 32.64 64.8003 30.6 64.8003 29.04C64.8003 28.56 64.8003 28.08 64.6803 27.72H57.2403ZM111.72 29.4C111.24 28.2 110.04 26.16 107.4 26.16C104.76 26.16 102.6 28.2 102.6 31.32C102.6 34.2 104.76 36.48 107.64 36.48C109.92 36.48 111.36 35.04 111.84 34.2L110.16 33C109.56 33.84 108.84 34.44 107.64 34.44C106.44 34.44 105.72 33.96 105.12 32.88L111.96 30L111.72 29.4ZM104.76 31.08C104.76 29.16 106.32 28.08 107.4 28.08C108.24 28.08 109.08 28.56 109.32 29.16L104.76 31.08ZM99.1203 36H101.4V21H99.1203V36ZM95.5203 27.24C94.9203 26.64 93.9603 26.04 92.7603 26.04C90.2403 26.04 87.8403 28.32 87.8403 31.2C87.8403 34.08 90.1203 36.24 92.7603 36.24C93.9603 36.24 94.9203 35.64 95.4003 35.04H95.5203V35.76C95.5203 37.68 94.4403 38.76 92.7603 38.76C91.4403 38.76 90.4803 37.8 90.2403 36.96L88.3203 37.8C88.9203 39.12 90.3603 40.8 92.8803 40.8C95.5203 40.8 97.6803 39.24 97.6803 35.52V26.4H95.5203V27.24ZM92.8803 34.32C91.3203 34.32 90.0003 33 90.0003 31.2C90.0003 29.4 91.3203 28.08 92.8803 28.08C94.4403 28.08 95.6403 29.4 95.6403 31.2C95.6403 33 94.4403 34.32 92.8803 34.32ZM122.16 21H116.76V36H119.04V30.36H122.16C124.68 30.36 127.08 28.56 127.08 25.68C127.08 22.8 124.68 21 122.16 21ZM122.28 28.2H119.04V23.04H122.28C123.96 23.04 124.92 24.48 124.92 25.56C124.8 26.88 123.84 28.2 122.28 28.2ZM136.08 26.04C134.4 26.04 132.72 26.76 132.12 28.32L134.16 29.16C134.64 28.32 135.36 28.08 136.2 28.08C137.4 28.08 138.48 28.8 138.6 30V30.12C138.24 29.88 137.28 29.52 136.32 29.52C134.16 29.52 132 30.72 132 32.88C132 34.92 133.8 36.24 135.72 36.24C137.28 36.24 138 35.52 138.6 34.8H138.72V36H140.88V30.24C140.64 27.6 138.6 26.04 136.08 26.04ZM135.84 34.32C135.12 34.32 134.04 33.96 134.04 33C134.04 31.8 135.36 31.44 136.44 31.44C137.4 31.44 137.88 31.68 138.48 31.92C138.24 33.36 137.04 34.32 135.84 34.32ZM148.44 26.4L145.92 32.88H145.8L143.16 26.4H140.76L144.72 35.52L142.44 40.56H144.72L150.84 26.4H148.44ZM128.28 36H130.56V21H128.28V36Z" fill="#FAFAFA"/>
<path d="M12.4799 9C12.1199 9.36 11.8799 9.96 11.8799 10.68V37.2C11.8799 37.92 12.1199 38.52 12.4799 38.88L12.5999 39L27.4799 24.12V24V23.88L12.4799 9Z" fill="url(#paint0_linear)"/>
<path d="M32.3995 29.1602L27.4795 24.2402V24.0002V23.8802L32.3995 18.9602L32.5195 19.0802L38.3995 22.4402C40.0795 23.4002 40.0795 24.9602 38.3995 25.9202L32.3995 29.1602Z" fill="url(#paint1_linear)"/>
<path d="M32.5195 29.0398L27.4795 23.9998L12.4795 38.9998C13.0795 39.5998 13.9195 39.5998 14.9995 39.1198L32.5195 29.0398Z" fill="url(#paint2_linear)"/>
<path d="M32.5195 18.9597L14.9995 8.99969C13.9195 8.39969 13.0795 8.5197 12.4795 9.1197L27.4795 23.9997L32.5195 18.9597Z" fill="url(#paint3_linear)"/>
<path opacity="0.2" d="M32.4005 28.9199L15.0005 38.7599C14.0405 39.3599 13.2005 39.2399 12.6005 38.7599L12.4805 38.8799L12.6005 38.9999C13.2005 39.4799 14.0405 39.5999 15.0005 38.9999L32.4005 28.9199Z" fill="black"/>
<path opacity="0.12" d="M12.48 38.7598C12.12 38.3998 12 37.7998 12 37.0798V37.1998C12 37.9198 12.24 38.5198 12.6 38.8798V38.7598H12.48Z" fill="black"/>
<path opacity="0.12" d="M38.3994 25.5598L32.3994 28.9198L32.5194 29.0398L38.3994 25.6798C39.2394 25.1998 39.5994 24.5998 39.5994 23.9998C39.5994 24.5998 39.1194 25.0798 38.3994 25.5598Z" fill="black"/>
<path opacity="0.25" d="M15 9.11995L38.4 22.44C39.12 22.92 39.6 23.4 39.6 24C39.6 23.4 39.24 22.8 38.4 22.32L15 8.99995C13.32 8.03995 12 8.87995 12 10.8V10.92C12 8.99995 13.32 8.15995 15 9.11995Z" fill="#FAFAFA"/>
<defs>
<linearGradient id="paint0_linear" x1="26.1595" y1="10.4516" x2="6.02065" y2="30.5905" gradientUnits="userSpaceOnUse">
<stop stop-color="#00A0FF"/>
<stop offset="0.00657445" stop-color="#00A1FF"/>
<stop offset="0.2601" stop-color="#00BEFF"/>
<stop offset="0.5122" stop-color="#00D2FF"/>
<stop offset="0.7604" stop-color="#00DFFF"/>
<stop offset="1" stop-color="#00E3FF"/>
</linearGradient>
<linearGradient id="paint1_linear" x1="40.6008" y1="24.0019" x2="11.5645" y2="24.0019" gradientUnits="userSpaceOnUse">
<stop stop-color="#FFE000"/>
<stop offset="0.4087" stop-color="#FFBD00"/>
<stop offset="0.7754" stop-color="#FFA500"/>
<stop offset="1" stop-color="#FF9C00"/>
</linearGradient>
<linearGradient id="paint2_linear" x1="29.7919" y1="26.7551" x2="2.48194" y2="54.065" gradientUnits="userSpaceOnUse">
<stop stop-color="#FF3A44"/>
<stop offset="1" stop-color="#C31162"/>
</linearGradient>
<linearGradient id="paint3_linear" x1="8.75625" y1="0.211136" x2="20.9514" y2="12.4061" gradientUnits="userSpaceOnUse">
<stop stop-color="#32A071"/>
<stop offset="0.0685" stop-color="#2DA771"/>
<stop offset="0.4762" stop-color="#15CF74"/>
<stop offset="0.8009" stop-color="#06E775"/>
<stop offset="1" stop-color="#00F076"/>
</linearGradient>
</defs>
</svg>
