<svg width="29" height="20" viewBox="0 0 29 20" fill="none" xmlns="http://www.w3.org/2000/svg">
<path fill-rule="evenodd" clip-rule="evenodd" d="M11.4119 13.6941V5.67749C14.258 7.01668 16.4622 8.31028 19.0691 9.70504C16.919 10.8975 14.258 12.2353 11.4119 13.6941ZM27.2729 1.68984C26.7819 1.04304 25.9452 0.540129 25.0544 0.373442C22.4361 -0.123768 6.10139 -0.125193 3.48449 0.373442C2.77014 0.507361 2.13406 0.830762 1.58762 1.33367C-0.7148 3.47068 0.0066633 14.9307 0.561635 16.7871C0.795008 17.5906 1.09668 18.1704 1.47663 18.5508C1.96614 19.0537 2.63638 19.3999 3.40622 19.5552C5.56207 20.0011 16.6686 20.2505 25.0089 19.6222C25.7773 19.4883 26.4575 19.1307 26.9939 18.6064C29.1228 16.4779 28.9776 4.37392 27.2729 1.68984Z" fill="#FAFAFA"/>
</svg>
