<svg width="24" height="24" viewBox="0 0 24 24" fill="none" xmlns="http://www.w3.org/2000/svg">
<path fill-rule="evenodd" clip-rule="evenodd" d="M3.2111 9.47858C2.90512 10.1725 2.97719 11.0724 3.12132 12.8721L3.27153 14.7477C3.43786 16.8245 3.52102 17.863 3.97871 18.6492C4.38173 19.3415 4.98334 19.8969 5.70563 20.2433C6.52588 20.6368 7.56762 20.6368 9.65111 20.6368H14.4263C16.5098 20.6368 17.5515 20.6368 18.3718 20.2433C19.0941 19.8969 19.6957 19.3415 20.0987 18.6492C20.5564 17.863 20.6395 16.8245 20.8059 14.7477L20.9561 12.8722C21.1002 11.0724 21.1723 10.1725 20.8663 9.47858C20.5975 8.86887 20.1333 8.36602 19.547 8.04936C18.8797 7.68896 17.9769 7.68896 16.1714 7.68896H7.90601C6.10047 7.68896 5.1977 7.68896 4.53043 8.04936C3.94413 8.36602 3.47995 8.86887 3.2111 9.47858ZM4.94656 10.4363C4.78453 10.8089 4.82676 11.2917 4.91121 12.2574L5.15463 15.0404C5.27184 16.3805 5.33045 17.0505 5.62904 17.5575C5.89199 18.0039 6.28232 18.3615 6.74995 18.5846C7.28097 18.8379 7.95358 18.8379 9.29881 18.8379H14.7785C16.1237 18.8379 16.7963 18.8379 17.3273 18.5846C17.795 18.3615 18.1853 18.0039 18.4483 17.5575C18.7469 17.0505 18.8055 16.3805 18.9227 15.0404L19.1661 12.2574V12.2573C19.2505 11.2917 19.2928 10.8089 19.1307 10.4363C18.9884 10.1089 18.7406 9.83854 18.4269 9.6682C18.0698 9.47431 17.5851 9.47431 16.6158 9.47431H7.46148C6.49216 9.47431 6.0075 9.47431 5.6504 9.6682C5.33667 9.83854 5.08892 10.1089 4.94656 10.4363Z" fill="#19AC4B"/><path fill-rule="evenodd" clip-rule="evenodd" d="M3.2111 9.47858C2.90512 10.1725 2.97719 11.0724 3.12132 12.8721L3.27153 14.7477C3.43786 16.8245 3.52102 17.863 3.97871 18.6492C4.38173 19.3415 4.98334 19.8969 5.70563 20.2433C6.52588 20.6368 7.56762 20.6368 9.65111 20.6368H14.4263C16.5098 20.6368 17.5515 20.6368 18.3718 20.2433C19.0941 19.8969 19.6957 19.3415 20.0987 18.6492C20.5564 17.863 20.6395 16.8245 20.8059 14.7477L20.9561 12.8722C21.1002 11.0724 21.1723 10.1725 20.8663 9.47858C20.5975 8.86887 20.1333 8.36602 19.547 8.04936C18.8797 7.68896 17.9769 7.68896 16.1714 7.68896H7.90601C6.10047 7.68896 5.1977 7.68896 4.53043 8.04936C3.94413 8.36602 3.47995 8.86887 3.2111 9.47858ZM4.94656 10.4363C4.78453 10.8089 4.82676 11.2917 4.91121 12.2574L5.15463 15.0404C5.27184 16.3805 5.33045 17.0505 5.62904 17.5575C5.89199 18.0039 6.28232 18.3615 6.74995 18.5846C7.28097 18.8379 7.95358 18.8379 9.29881 18.8379H14.7785C16.1237 18.8379 16.7963 18.8379 17.3273 18.5846C17.795 18.3615 18.1853 18.0039 18.4483 17.5575C18.7469 17.0505 18.8055 16.3805 18.9227 15.0404L19.1661 12.2574V12.2573C19.2505 11.2917 19.2928 10.8089 19.1307 10.4363C18.9884 10.1089 18.7406 9.83854 18.4269 9.6682C18.0698 9.47431 17.5851 9.47431 16.6158 9.47431H7.46148C6.49216 9.47431 6.0075 9.47431 5.6504 9.6682C5.33667 9.83854 5.08892 10.1089 4.94656 10.4363Z" fill="#19AC4B"/>
<path d="M14.9831 7.68885L14.7311 5.35509C14.6782 5.16283 14.4594 4.99552 14.2106 4.99552H9.82121C9.57234 4.99552 9.35355 5.16283 9.29029 5.40289L9.04869 7.68885H7.48706L7.77636 5.04852C8.03248 4.07996 8.8693 3.43668 9.82121 3.43668H14.2106C15.1625 3.43668 15.9993 4.07996 16.2451 5.00175L16.6072 7.68885H14.9831Z" fill="#19AC4B"/><path d="M14.9831 7.68885L14.7311 5.35509C14.6782 5.16283 14.4594 4.99552 14.2106 4.99552H9.82121C9.57234 4.99552 9.35355 5.16283 9.29029 5.40289L9.04869 7.68885H7.48706L7.77636 5.04852C8.03248 4.07996 8.8693 3.43668 9.82121 3.43668H14.2106C15.1625 3.43668 15.9993 4.07996 16.2451 5.00175L16.6072 7.68885H14.9831Z" fill="#19AC4B"/>
</svg>