<svg width="24" height="24" viewBox="0 0 24 24" fill="none" xmlns="http://www.w3.org/2000/svg">
<path fill-rule="evenodd" clip-rule="evenodd" d="M3.21112 9.47858C2.90514 10.1725 2.97721 11.0724 3.12135 12.8721L3.27155 14.7477C3.43788 16.8245 3.52104 17.863 3.97873 18.6492C4.38175 19.3415 4.98337 19.8969 5.70565 20.2433C6.52591 20.6368 7.56765 20.6368 9.65113 20.6368H14.4263C16.5098 20.6368 17.5515 20.6368 18.3718 20.2433C19.0941 19.8969 19.6957 19.3415 20.0987 18.6492C20.5564 17.863 20.6396 16.8245 20.8059 14.7477L20.9561 12.8722C21.1002 11.0724 21.1723 10.1725 20.8663 9.47858C20.5975 8.86887 20.1333 8.36602 19.547 8.04936C18.8797 7.68896 17.977 7.68896 16.1714 7.68896H7.90603C6.10049 7.68896 5.19773 7.68896 4.53045 8.04936C3.94415 8.36602 3.47997 8.86887 3.21112 9.47858ZM4.94658 10.4363C4.78455 10.8089 4.82678 11.2917 4.91124 12.2574L5.15465 15.0404C5.27186 16.3805 5.33047 17.0505 5.62906 17.5575C5.89201 18.0039 6.28234 18.3615 6.74997 18.5846C7.28099 18.8379 7.9536 18.8379 9.29883 18.8379H14.7785C16.1237 18.8379 16.7964 18.8379 17.3274 18.5846C17.795 18.3615 18.1853 18.0039 18.4483 17.5575C18.7469 17.0505 18.8055 16.3805 18.9227 15.0404L19.1661 12.2574V12.2573C19.2506 11.2917 19.2928 10.8089 19.1308 10.4363C18.9884 10.1089 18.7407 9.83854 18.4269 9.6682C18.0698 9.47431 17.5852 9.47431 16.6158 9.47431H7.4615C6.49218 9.47431 6.00753 9.47431 5.65043 9.6682C5.33669 9.83854 5.08894 10.1089 4.94658 10.4363Z" fill="black"/>
<path d="M14.9831 7.68885L14.7311 5.35509C14.6782 5.16283 14.4594 4.99552 14.2106 4.99552H9.82121C9.57234 4.99552 9.35355 5.16283 9.29029 5.40289L9.04869 7.68885H7.48706L7.77636 5.04852C8.03248 4.07996 8.8693 3.43668 9.82121 3.43668H14.2106C15.1625 3.43668 15.9993 4.07996 16.2451 5.00175L16.6072 7.68885H14.9831Z" fill="black"/>
</svg>