<svg width="23" height="14" viewBox="0 0 23 14" fill="none" xmlns="http://www.w3.org/2000/svg">
<path d="M0 14V0H23V14H0Z" fill="black"/>
<path fill-rule="evenodd" clip-rule="evenodd" d="M11.1424 6.66668C10.1921 6.66668 9.71387 6.12368 9.71387 5.50002C9.71387 4.89702 10.1678 4.33335 11.1424 4.33335V6.66668ZM13.286 8.50002C13.286 9.10302 12.8321 9.66668 11.8574 9.66668V7.33335C12.8078 7.33335 13.286 7.87635 13.286 8.50002ZM14 8.5C14 7.57733 13.2768 6.66667 11.8571 6.66667V4.33333H12.5714C12.9661 4.33333 13.2857 4.63167 13.2857 5H14C14 4.26367 13.3604 3.66667 12.5714 3.66667H11.8571V3H11.1429V3.66667C9.72929 3.66667 9 4.574 9 5.5C9 6.42267 9.72321 7.33333 11.1429 7.33333V9.66667H10.4286C10.0339 9.66667 9.71429 9.36833 9.71429 9H9C9 9.73633 9.63964 10.3333 10.4286 10.3333H11.1429V11H11.8571V10.3333C13.2707 10.3333 14 9.426 14 8.5Z" fill="white" stroke="white" stroke-width="0.6"/>
</svg>