<svg width="20" height="14" viewBox="0 0 20 14" fill="none" xmlns="http://www.w3.org/2000/svg">
<path fill-rule="evenodd" clip-rule="evenodd" d="M2 0C0.895 0 0 0.956938 0 2.05742V2.95532H20V2.05742C20 0.956938 19.105 0 18 0H2ZM20 4.95532H0V12.0255C0 13.127 0.895 13.9553 2 13.9553H18C19.105 13.9553 20 13.127 20 12.0255V4.95532ZM18 9.95532C18 10.5076 17.5523 10.9553 17 10.9553C16.4477 10.9553 16 10.5076 16 9.95532C16 9.40304 16.4477 8.95532 17 8.95532C17.5523 8.95532 18 9.40304 18 9.95532ZM16 9.95532C16 9.40304 15.5523 8.95532 15 8.95532C14.4477 8.95532 14 9.40304 14 9.95532C14 10.5076 14.4477 10.9553 15 10.9553C15.5523 10.9553 16 10.5076 16 9.95532Z" fill="#000000"/>
</svg>