<svg width="17" height="20" viewBox="0 0 17 20" fill="none" xmlns="http://www.w3.org/2000/svg">
<path fill-rule="evenodd" clip-rule="evenodd" d="M8.20947 11.2089C6.55532 11.2089 5.20947 9.86394 5.20947 8.20979C5.20947 6.55471 6.55532 5.20886 8.20947 5.20886C9.86363 5.20886 11.2095 6.55471 11.2095 8.20979C11.2095 9.86394 9.86363 11.2089 8.20947 11.2089Z" fill="black"/>
<mask id="mask0" mask-type="alpha" maskUnits="userSpaceOnUse" x="0" y="0" width="17" height="20">
<path fill-rule="evenodd" clip-rule="evenodd" d="M0 0H16.4995V19.5H0V0Z" fill="white"/>
</mask>
<g mask="url(#mask0)">
<path fill-rule="evenodd" clip-rule="evenodd" d="M8.24951 1.7937C4.66004 1.7937 1.73986 4.74185 1.73986 8.36411C1.73986 12.9729 7.1636 17.4632 8.24951 17.7023C9.33542 17.4622 14.7592 12.972 14.7592 8.36411C14.7592 4.74185 11.839 1.7937 8.24951 1.7937ZM8.24951 19.5C6.45551 19.5 -0.000488281 13.948 -0.000488281 8.313C-0.000488281 3.729 3.70051 0 8.24951 0C12.7985 0 16.4995 3.729 16.4995 8.313C16.4995 13.948 10.0435 19.5 8.24951 19.5Z" fill="black"/>
</g>
</svg>