<svg width="102" height="36" viewBox="0 0 102 36" fill="none" xmlns="http://www.w3.org/2000/svg">
<path d="M42.9177 15.8824L42.2824 19.6942H32.3294L30.4236 29.6471H26.4L30.6353 5.08243H46.9412L46.5177 9.10596H34.2353L33.1765 15.6707H42.9177V15.8824Z" fill="black"/>
<path d="M61.7647 20.1176C61.7647 25.8352 57.7412 30.0705 52.6588 30.0705C48.2118 30.0705 45.0353 26.6823 45.0353 22.0235C45.0353 16.3058 49.0588 12.0705 54.1412 12.0705C58.8 12.0705 61.7647 15.247 61.7647 20.1176ZM48.6353 22.0235C48.6353 24.7764 50.3294 26.6823 52.8706 26.6823C55.8353 26.6823 58.3765 23.9294 58.3765 20.3294C58.3765 17.5764 56.6823 15.6705 54.1412 15.6705C50.9647 15.4588 48.6353 18.2117 48.6353 22.0235Z" fill="black"/>
<path d="M80.6117 20.1176C80.6117 25.8352 76.5882 30.0705 71.5059 30.0705C67.0588 30.0705 63.8823 26.6823 63.8823 22.0235C63.8823 16.3058 67.9059 12.0705 72.9882 12.0705C77.647 12.0705 80.6117 15.247 80.6117 20.1176ZM67.4823 22.0235C67.4823 24.7764 69.1764 26.6823 71.7176 26.6823C74.6823 26.6823 77.2235 23.9294 77.2235 20.3294C77.2235 17.5764 75.5294 15.6705 72.9882 15.6705C69.8117 15.4588 67.4823 18.2117 67.4823 22.0235Z" fill="black"/>
<path d="M98.4 5.29416L96.7058 14.8236C95.647 13.1295 93.9529 12.2824 91.2 12.2824C86.3294 12.2824 82.7294 16.7295 82.7294 22.4471C82.7294 27.1059 85.4823 30.4942 89.7176 30.4942C91.8353 30.4942 93.7411 29.6471 95.0117 27.953L94.8 30.0706H97.7647L102 5.50592H98.4V5.29416ZM90.3529 26.6824C87.8117 26.6824 86.1176 24.7765 86.1176 22.0236C86.1176 18.2118 88.447 15.6706 91.6235 15.6706C94.1647 15.6706 95.8588 17.5765 95.8588 20.3295C95.8588 23.9295 93.5294 26.6824 90.3529 26.6824Z" fill="black"/>
<path d="M25.2 12.7059C25.2 7.2 21.8118 2.54118 16.9412 0.847059L16.0941 5.29412H15.8824H12.0706L12.9176 0H12.7059C5.71765 0 0 5.71765 0 12.7059C0 12.7059 0 15.0353 0.635294 17.3647C1.27059 19.6941 2.32941 21.1765 2.32941 21.1765L7.83529 29.0118L8.47059 25.6235L11.4353 9.10588H11.6471H15.4588L11.2235 33.4588L12.7059 36L23.0824 21.1765C23.0824 21.1765 24.1412 19.6941 24.7765 17.3647C25.2 15.2471 25.2 13.1294 25.2 12.7059Z" fill="#07AA4B"/>
</svg>