<svg width="21" height="20" viewBox="0 0 21 20" fill="none" xmlns="http://www.w3.org/2000/svg">
<path fill-rule="evenodd" clip-rule="evenodd" d="M20.0024 18.5855L18.5884 19.9995L14.3454 15.7575L15.7594 14.3425L20.0024 18.5855ZM8.00244 13.9995C4.69444 13.9995 2.00244 11.3085 2.00244 7.99951C2.00244 4.69151 4.69444 1.99951 8.00244 1.99951C11.3104 1.99951 14.0024 4.69151 14.0024 7.99951C14.0024 11.3085 11.3104 13.9995 8.00244 13.9995ZM8.00244 -0.000488281C3.58444 -0.000488281 0.00244141 3.58151 0.00244141 7.99951C0.00244141 12.4175 3.58444 15.9995 8.00244 15.9995C12.4204 15.9995 16.0024 12.4175 16.0024 7.99951C16.0024 3.58151 12.4204 -0.000488281 8.00244 -0.000488281Z" fill="black"/>
</svg>