<svg width="130" height="32" viewBox="0 0 130 32" fill="none" xmlns="http://www.w3.org/2000/svg">
<path d="M62.9583 31.7896H66.6694L68.5507 24.2365L70.432 31.7896H74.1431L78.0855 17.4738H74.6598L72.1856 27.4657L69.883 17.4738H67.2322L64.9158 27.4657L62.4555 17.4738H59.0298L62.9583 31.7896Z" fill="#F0F0F0"/>
<path d="M85.7002 32.0001C89.7987 32.0001 93.1224 28.8018 93.1224 24.6317C93.1224 20.4617 89.7987 17.2633 85.7002 17.2633C81.6016 17.2633 78.2779 20.4617 78.2779 24.6317C78.2779 28.8018 81.6016 32.0001 85.7002 32.0001ZM85.7002 28.8422C83.3756 28.8422 81.5404 27.1621 81.5404 24.6317C81.5404 22.1014 83.3756 20.4212 85.7002 20.4212C88.0247 20.4212 89.8599 22.1014 89.8599 24.6317C89.8599 27.1621 88.0247 28.8422 85.7002 28.8422Z" fill="#F0F0F0"/>
<path d="M102.49 31.7896H105.998L102.932 26.5143C104.502 25.7248 105.563 24.1459 105.563 22.405C105.563 19.7127 103.381 17.4738 100.669 17.4738H94.9594V31.7896H98.2219V27.0609H99.7716L102.49 31.7896ZM98.2219 20.5831H100.669C101.566 20.5831 102.3 21.3726 102.3 22.405C102.3 23.4374 101.566 24.2269 100.669 24.2269H98.2219V20.5831Z" fill="#F0F0F0"/>
<path d="M119.12 31.7896L114.03 24.4495L118.937 17.4738H115.225L110.767 23.7005V17.4738H107.505V31.7896H110.767V25.158L115.408 31.7896H119.12Z" fill="#F0F0F0"/>
<path d="M124.448 32.0001C127.547 32.0001 129.75 30.3807 129.75 27.6479C129.75 24.652 127.323 23.903 125.162 23.2552C122.939 22.5872 122.592 22.1418 122.592 21.4941C122.592 20.9273 123.102 20.4212 124.122 20.4212C125.427 20.4212 126.1 21.0487 126.589 22.0609L129.342 20.4617C128.302 18.3767 126.467 17.2633 124.122 17.2633C121.655 17.2633 119.33 18.8423 119.33 21.575C119.33 24.2876 121.41 25.2997 123.53 25.8868C125.672 26.4738 126.487 26.8179 126.487 27.6884C126.487 28.235 126.1 28.8422 124.55 28.8422C122.939 28.8422 122.062 28.0528 121.553 26.8787L118.739 28.4981C119.534 30.5831 121.451 32.0001 124.448 32.0001Z" fill="#F0F0F0"/>
<path d="M68.4987 3.40093V0.283522H59.4438V14.4535H62.7024V9.25112H68.4987V6.13372H62.7024V3.40093H68.4987Z" fill="#F0F0F0"/>
<path d="M76.0749 14.7369C79.2112 14.7369 81.5737 12.9151 81.5737 9.87865V0.283522H78.3151V9.59525C78.3151 10.6681 77.806 11.5791 76.0749 11.5791C74.3438 11.5791 73.8346 10.6681 73.8346 9.59525V0.283522H70.576V9.87865C70.576 12.9151 72.9385 14.7369 76.0749 14.7369Z" fill="#F0F0F0"/>
<path d="M88.9134 14.7369C92.0091 14.7369 94.2086 13.1175 94.2086 10.3847C94.2086 7.38877 91.785 6.63979 89.6262 5.99202C87.4063 5.324 87.0601 4.87866 87.0601 4.23089C87.0601 3.66408 87.5693 3.15801 88.5876 3.15801C89.891 3.15801 90.5631 3.78554 91.0519 4.79769L93.8013 3.1985C92.7626 1.11348 90.9297 0.00012207 88.5876 0.00012207C86.1233 0.00012207 83.8016 1.57907 83.8016 4.31186C83.8016 7.0244 85.8789 8.03655 87.997 8.62359C90.1354 9.21064 90.95 9.55476 90.95 10.4252C90.95 10.9718 90.5631 11.5791 89.0153 11.5791C87.4063 11.5791 86.5306 10.7896 86.0215 9.61549L83.2109 11.2349C84.0052 13.3199 85.9196 14.7369 88.9134 14.7369Z" fill="#F0F0F0"/>
<path d="M95.9481 0.283522V14.4535H99.2067V0.283522H95.9481Z" fill="#F0F0F0"/>
<path d="M108.669 14.7369C112.763 14.7369 116.082 11.5386 116.082 7.36853C116.082 3.1985 112.763 0.00012207 108.669 0.00012207C104.575 0.00012207 101.256 3.1985 101.256 7.36853C101.256 11.5386 104.575 14.7369 108.669 14.7369ZM108.669 11.5791C106.347 11.5791 104.514 9.89889 104.514 7.36853C104.514 4.83817 106.347 3.15801 108.669 3.15801C110.991 3.15801 112.824 4.83817 112.824 7.36853C112.824 9.89889 110.991 11.5791 108.669 11.5791Z" fill="#F0F0F0"/>
<path d="M126.07 0.283522V7.97582L120.571 0.283522H118.127V14.4535H121.386V6.76125L126.885 14.4535H129.329V0.283522H126.07Z" fill="#F0F0F0"/>
<path d="M21.9102 5.12011C21.9102 4.52572 21.9102 4.22852 21.9383 3.97852C22.1723 1.9015 23.8115 0.262315 25.8885 0.0282914C26.1386 0.00012207 26.4358 0.00012207 27.0301 0.00012207C27.6245 0.00012207 27.9217 0.00012207 28.1717 0.0282914C30.2488 0.262315 31.8879 1.9015 32.122 3.97852C32.1501 4.22852 32.1501 4.52572 32.1501 5.12011C32.1501 5.71451 32.1501 6.0117 32.122 6.26171C31.8879 8.33873 30.2488 9.97791 28.1717 10.2119C27.9217 10.2401 27.6245 10.2401 27.0301 10.2401C26.4358 10.2401 26.1386 10.2401 25.8885 10.2119C23.8115 9.97791 22.1723 8.33873 21.9383 6.26171C21.9102 6.0117 21.9102 5.71451 21.9102 5.12011Z" fill="#F0F0F0"/>
<path d="M43.6704 5.12011C43.6704 4.52572 43.6704 4.22852 43.6986 3.97852C43.9326 1.9015 45.5718 0.262315 47.6488 0.0282914C47.8988 0.00012207 48.196 0.00012207 48.7904 0.00012207C49.3848 0.00012207 49.682 0.00012207 49.932 0.0282914C52.009 0.262315 53.6482 1.9015 53.8822 3.97852C53.9104 4.22852 53.9104 4.52572 53.9104 5.12011C53.9104 5.71451 53.9104 6.0117 53.8822 6.26171C53.6482 8.33873 52.009 9.97791 49.932 10.2119C49.682 10.2401 49.3848 10.2401 48.7904 10.2401C48.196 10.2401 47.8988 10.2401 47.6488 10.2119C45.5718 9.97791 43.9326 8.33873 43.6986 6.26171C43.6704 6.0117 43.6704 5.71451 43.6704 5.12011Z" fill="#F0F0F0"/>
<path d="M21.9102 16.0001C21.9102 15.4057 21.9102 15.1085 21.9383 14.8585C22.1723 12.7815 23.8115 11.1423 25.8885 10.9083C26.1386 10.8801 26.4358 10.8801 27.0301 10.8801C27.6245 10.8801 27.9217 10.8801 28.1717 10.9083C30.2488 11.1423 31.8879 12.7815 32.122 14.8585C32.1501 15.1085 32.1501 15.4057 32.1501 16.0001C32.1501 16.5945 32.1501 16.8917 32.122 17.1417C31.8879 19.2187 30.2488 20.8579 28.1717 21.0919C27.9217 21.1201 27.6245 21.1201 27.0301 21.1201C26.4358 21.1201 26.1386 21.1201 25.8885 21.0919C23.8115 20.8579 22.1723 19.2187 21.9383 17.1417C21.9102 16.8917 21.9102 16.5945 21.9102 16.0001Z" fill="#F0F0F0"/>
<path d="M32.79 16.0001C32.79 15.4057 32.79 15.1085 32.8182 14.8585C33.0522 12.7815 34.6914 11.1423 36.7684 10.9083C37.0184 10.8801 37.3156 10.8801 37.91 10.8801C38.5044 10.8801 38.8016 10.8801 39.0516 10.9083C41.1286 11.1423 42.7678 12.7815 43.0019 14.8585C43.03 15.1085 43.03 15.4057 43.03 16.0001C43.03 16.5945 43.03 16.8917 43.0019 17.1417C42.7678 19.2187 41.1286 20.8579 39.0516 21.0919C38.8016 21.1201 38.5044 21.1201 37.91 21.1201C37.3156 21.1201 37.0184 21.1201 36.7684 21.0919C34.6914 20.8579 33.0522 19.2187 32.8182 17.1417C32.79 16.8917 32.79 16.5945 32.79 16.0001Z" fill="#F0F0F0"/>
<path d="M43.6704 16.0001C43.6704 15.4057 43.6704 15.1085 43.6986 14.8585C43.9326 12.7815 45.5718 11.1423 47.6488 10.9083C47.8988 10.8801 48.196 10.8801 48.7904 10.8801C49.3848 10.8801 49.682 10.8801 49.932 10.9083C52.009 11.1423 53.6482 12.7815 53.8822 14.8585C53.9104 15.1085 53.9104 15.4057 53.9104 16.0001C53.9104 16.5945 53.9104 16.8917 53.8822 17.1417C53.6482 19.2187 52.009 20.8579 49.932 21.0919C49.682 21.1201 49.3848 21.1201 48.7904 21.1201C48.196 21.1201 47.8988 21.1201 47.6488 21.0919C45.5718 20.8579 43.9326 19.2187 43.6986 17.1417C43.6704 16.8917 43.6704 16.5945 43.6704 16.0001Z" fill="#F0F0F0"/>
<path d="M21.9102 26.8801C21.9102 26.2857 21.9102 25.9885 21.9383 25.7385C22.1723 23.6615 23.8115 22.0223 25.8885 21.7883C26.1386 21.7601 26.4358 21.7601 27.0301 21.7601C27.6245 21.7601 27.9217 21.7601 28.1717 21.7883C30.2488 22.0223 31.8879 23.6615 32.122 25.7385C32.1501 25.9885 32.1501 26.2857 32.1501 26.8801C32.1501 27.4745 32.1501 27.7717 32.122 28.0217C31.8879 30.0987 30.2488 31.7379 28.1717 31.9719C27.9217 32.0001 27.6245 32.0001 27.0301 32.0001C26.4358 32.0001 26.1386 32.0001 25.8885 31.9719C23.8115 31.7379 22.1723 30.0987 21.9383 28.0217C21.9102 27.7717 21.9102 27.4745 21.9102 26.8801Z" fill="#F0F0F0"/>
<path d="M32.79 26.8801C32.79 26.2857 32.79 25.9885 32.8182 25.7385C33.0522 23.6615 34.6914 22.0223 36.7684 21.7883C37.0184 21.7601 37.3156 21.7601 37.91 21.7601C38.5044 21.7601 38.8016 21.7601 39.0516 21.7883C41.1286 22.0223 42.7678 23.6615 43.0019 25.7385C43.03 25.9885 43.03 26.2857 43.03 26.8801C43.03 27.4745 43.03 27.7717 43.0019 28.0217C42.7678 30.0987 41.1286 31.7379 39.0516 31.9719C38.8016 32.0001 38.5044 32.0001 37.91 32.0001C37.3156 32.0001 37.0184 32.0001 36.7684 31.9719C34.6914 31.7379 33.0522 30.0987 32.8182 28.0217C32.79 27.7717 32.79 27.4745 32.79 26.8801Z" fill="#F0F0F0"/>
<path d="M43.6704 26.8801C43.6704 26.2857 43.6704 25.9885 43.6986 25.7385C43.9326 23.6615 45.5718 22.0223 47.6488 21.7883C47.8988 21.7601 48.196 21.7601 48.7904 21.7601C49.3848 21.7601 49.682 21.7601 49.932 21.7883C52.009 22.0223 53.6482 23.6615 53.8822 25.7385C53.9104 25.9885 53.9104 26.2857 53.9104 26.8801C53.9104 27.4745 53.9104 27.7717 53.8822 28.0217C53.6482 30.0987 52.009 31.7379 49.932 31.9719C49.682 32.0001 49.3848 32.0001 48.7904 32.0001C48.196 32.0001 47.8988 32.0001 47.6488 31.9719C45.5718 31.7379 43.9326 30.0987 43.6986 28.0217C43.6704 27.7717 43.6704 27.4745 43.6704 26.8801Z" fill="#F0F0F0"/>
<path d="M0.150391 5.12011C0.150391 4.52572 0.150391 4.22852 0.17856 3.97852C0.412583 1.9015 2.05177 0.262315 4.12878 0.0282914C4.37879 0.00012207 4.67599 0.00012207 5.27038 0.00012207C5.86478 0.00012207 6.16197 0.00012207 6.41198 0.0282914C8.489 0.262315 10.1282 1.9015 10.3622 3.97852C10.3904 4.22852 10.3904 4.52572 10.3904 5.12011C10.3904 5.71451 10.3904 6.0117 10.3622 6.26171C10.1282 8.33873 8.489 9.97791 6.41198 10.2119C6.16197 10.2401 5.86478 10.2401 5.27038 10.2401C4.67599 10.2401 4.37879 10.2401 4.12878 10.2119C2.05177 9.97791 0.412583 8.33873 0.17856 6.26171C0.150391 6.0117 0.150391 5.71451 0.150391 5.12011Z" fill="#F0F0F0"/>
<path d="M11.0303 5.12011C11.0303 4.52572 11.0303 4.22852 11.0584 3.97852C11.2925 1.9015 12.9317 0.262315 15.0087 0.0282914C15.2587 0.00012207 15.5559 0.00012207 16.1503 0.00012207C16.7447 0.00012207 17.0419 0.00012207 17.2919 0.0282914C19.3689 0.262315 21.0081 1.9015 21.2421 3.97852C21.2703 4.22852 21.2703 4.52572 21.2703 5.12011C21.2703 5.71451 21.2703 6.0117 21.2421 6.26171C21.0081 8.33873 19.3689 9.97791 17.2919 10.2119C17.0419 10.2401 16.7447 10.2401 16.1503 10.2401C15.5559 10.2401 15.2587 10.2401 15.0087 10.2119C12.9317 9.97791 11.2925 8.33873 11.0584 6.26171C11.0303 6.0117 11.0303 5.71451 11.0303 5.12011Z" fill="#F0F0F0"/>
<path d="M0.150391 16.0001C0.150391 15.4057 0.150391 15.1085 0.17856 14.8585C0.412583 12.7815 2.05177 11.1423 4.12878 10.9083C4.37879 10.8801 4.67599 10.8801 5.27038 10.8801C5.86478 10.8801 6.16197 10.8801 6.41198 10.9083C8.489 11.1423 10.1282 12.7815 10.3622 14.8585C10.3904 15.1085 10.3904 15.4057 10.3904 16.0001C10.3904 16.5945 10.3904 16.8917 10.3622 17.1417C10.1282 19.2187 8.489 20.8579 6.41198 21.0919C6.16197 21.1201 5.86478 21.1201 5.27038 21.1201C4.67599 21.1201 4.37879 21.1201 4.12878 21.0919C2.05177 20.8579 0.412583 19.2187 0.17856 17.1417C0.150391 16.8917 0.150391 16.5945 0.150391 16.0001Z" fill="#F0F0F0"/>
<path d="M11.0303 16.0001C11.0303 15.4057 11.0303 15.1085 11.0584 14.8585C11.2925 12.7815 12.9317 11.1423 15.0087 10.9083C15.2587 10.8801 15.5559 10.8801 16.1503 10.8801C16.7447 10.8801 17.0419 10.8801 17.2919 10.9083C19.3689 11.1423 21.0081 12.7815 21.2421 14.8585C21.2703 15.1085 21.2703 15.4057 21.2703 16.0001C21.2703 16.5945 21.2703 16.8917 21.2421 17.1417C21.0081 19.2187 19.3689 20.8579 17.2919 21.0919C17.0419 21.1201 16.7447 21.1201 16.1503 21.1201C15.5559 21.1201 15.2587 21.1201 15.0087 21.0919C12.9317 20.8579 11.2925 19.2187 11.0584 17.1417C11.0303 16.8917 11.0303 16.5945 11.0303 16.0001Z" fill="#F0F0F0"/>
<path d="M0.150391 26.8801C0.150391 26.2857 0.150391 25.9885 0.17856 25.7385C0.412583 23.6615 2.05177 22.0223 4.12878 21.7883C4.37879 21.7601 4.67599 21.7601 5.27038 21.7601C5.86478 21.7601 6.16197 21.7601 6.41198 21.7883C8.489 22.0223 10.1282 23.6615 10.3622 25.7385C10.3904 25.9885 10.3904 26.2857 10.3904 26.8801C10.3904 27.4745 10.3904 27.7717 10.3622 28.0217C10.1282 30.0987 8.489 31.7379 6.41198 31.9719C6.16197 32.0001 5.86478 32.0001 5.27038 32.0001C4.67599 32.0001 4.37879 32.0001 4.12878 31.9719C2.05177 31.7379 0.412583 30.0987 0.17856 28.0217C0.150391 27.7717 0.150391 27.4745 0.150391 26.8801Z" fill="#F0F0F0"/>
</svg>