<svg width="87" height="42" viewBox="0 0 87 42" fill="none" xmlns="http://www.w3.org/2000/svg">
<path d="M86.1506 1.41179V0H21.3616C21.3616 1.55933 20.0968 2.82305 18.5364 2.82305C16.9771 2.82305 15.7128 1.55933 15.7128 0H0V1.41126C1.05965 1.41126 1.58894 2.12308 1.58894 2.99966C1.58894 3.87678 1.05965 4.58752 0 4.58752V5.91155C1.05965 5.91155 1.58894 6.62229 1.58894 7.49888C1.58894 8.37654 1.05965 9.08728 0 9.08728V10.4108C1.05965 10.4108 1.58894 11.1215 1.58894 11.9992C1.58894 12.8758 1.05965 13.5865 0 13.5865V14.9105C1.05965 14.9105 1.58894 15.6213 1.58894 16.4984C1.58894 17.376 1.05965 18.0868 0 18.0868V19.4097C1.05965 19.4097 1.58894 20.1205 1.58894 20.9981C1.58894 21.8753 1.05965 22.586 0 22.586V23.9095C1.05965 23.9095 1.58894 24.6197 1.58894 25.4974C1.58894 26.375 1.05965 27.0874 0 27.0874V28.4109C1.05965 28.4109 1.58894 29.1221 1.58894 29.9987C1.58894 30.8753 1.05965 31.5871 0 31.5871V32.9106C1.05965 32.9106 1.58894 33.6219 1.58894 34.499C1.58894 35.3756 1.05965 36.0869 0 36.0869V37.4109C1.05965 37.4109 1.58894 38.1217 1.58894 38.9982C1.58894 39.8754 1.05965 40.5866 0 40.5866V41.9984H15.8049C15.7467 41.7723 15.7128 41.5365 15.7128 41.292C15.7128 39.7327 16.9771 38.469 18.5364 38.469C20.0968 38.469 21.3616 39.7332 21.3616 41.292C21.3616 41.5359 21.3277 41.7723 21.269 41.9984H86.1506V40.5866C85.4447 40.5866 84.5628 39.8754 84.5628 38.9982C84.5628 38.1217 85.4453 37.4109 86.1506 37.4109V36.0869C85.4447 36.0869 84.5628 35.3756 84.5628 34.499C84.5628 33.6219 85.4453 32.9106 86.1506 32.9106V31.5871C85.4447 31.5871 84.5628 30.8759 84.5628 29.9993C84.5628 29.1227 85.4453 28.4114 86.1506 28.4114V27.0879C85.4447 27.0879 84.5628 26.3772 84.5628 25.4995C84.5628 24.6219 85.4453 23.9116 86.1506 23.9116V22.5876C85.4447 22.5876 84.5628 21.8769 84.5628 20.9998C84.5628 20.1221 85.4453 19.4114 86.1506 19.4114V18.0884C85.4447 18.0884 84.5628 17.3777 84.5628 16.5C84.5628 15.6229 85.4453 14.9121 86.1506 14.9121V13.5881C85.4447 13.5881 84.5628 12.8774 84.5628 12.0008C84.5628 11.1231 85.4453 10.4124 86.1506 10.4124V9.08889C85.4447 9.08889 84.5628 8.37815 84.5628 7.50049C84.5628 6.62391 85.4453 5.91317 86.1506 5.91317V4.58806C85.4447 4.58806 84.5628 3.87732 84.5628 3.0002C84.5628 2.12361 85.4447 1.41179 86.1506 1.41179Z" fill="url(#paint0_linear)"/>
<path d="M18.3609 2.82549C16.9485 2.82549 15.7128 1.56177 15.7128 0.00244141H0V1.4137C1.05965 1.4137 1.58894 2.12552 1.58894 3.0021C1.58894 3.87922 1.05965 4.58996 0 4.58996V5.91399C1.05965 5.91399 1.58894 6.62473 1.58894 7.50132C1.58894 8.37898 1.05965 9.08972 0 9.08972V10.4132C1.05965 10.4132 1.58894 11.124 1.58894 12.0016C1.58894 12.8782 1.05965 13.5889 0 13.5889V14.913C1.05965 14.913 1.58894 15.6237 1.58894 16.5008C1.58894 17.3785 1.05965 18.0892 0 18.0892V19.4122C1.05965 19.4122 1.58894 20.1229 1.58894 21.0006C1.58894 21.8777 1.05965 22.5884 0 22.5884V23.9119C1.05965 23.9119 1.58894 24.6221 1.58894 25.4998C1.58894 26.3775 1.05965 27.0893 0 27.0893V28.4128C1.05965 28.4128 1.58894 29.1241 1.58894 30.0006C1.58894 30.8772 1.05965 31.589 0 31.589V32.9125C1.05965 32.9125 1.58894 33.6238 1.58894 34.5009C1.58894 35.3775 1.05965 36.0888 0 36.0888V37.4128C1.05965 37.4128 1.58894 38.1236 1.58894 39.0001C1.58894 39.8773 1.05965 40.5886 0 40.5886V42.0003H15.8049C15.7467 41.7742 15.624 41.5384 15.624 41.2939C15.624 39.7346 16.9485 38.4709 18.3609 38.4709V2.82549Z" fill="url(#paint1_linear)"/>
<path fill-rule="evenodd" clip-rule="evenodd" d="M18.3491 33.8809H18.7136V37.0577H18.3491V33.8809Z" fill="#CFCFCF"/>
<path fill-rule="evenodd" clip-rule="evenodd" d="M18.3491 37.0577H18.7136V37.411H18.3491V37.0577Z" fill="#939090"/>
<path fill-rule="evenodd" clip-rule="evenodd" d="M18.7021 37.0577H19.0661V37.411H18.7021V37.0577Z" fill="#F6F6F6"/>
<path fill-rule="evenodd" clip-rule="evenodd" d="M18.7021 33.8809H19.0661V37.0577H18.7021V33.8809Z" fill="white"/>
<path fill-rule="evenodd" clip-rule="evenodd" d="M18.3491 33.5277H18.7136V33.8809H18.3491V33.5277Z" fill="#939090"/>
<path fill-rule="evenodd" clip-rule="evenodd" d="M18.3491 27.8816H18.7136V31.0579H18.3491V27.8816Z" fill="#CFCFCF"/>
<path fill-rule="evenodd" clip-rule="evenodd" d="M18.3491 31.0579H18.7136V31.4111H18.3491V31.0579Z" fill="#939090"/>
<path fill-rule="evenodd" clip-rule="evenodd" d="M18.7021 31.0579H19.0661V31.4111H18.7021V31.0579Z" fill="#F6F6F6"/>
<path fill-rule="evenodd" clip-rule="evenodd" d="M18.7021 27.8816H19.0661V31.0579H18.7021V27.8816Z" fill="white"/>
<path fill-rule="evenodd" clip-rule="evenodd" d="M18.3491 27.5278H18.7136V27.8816H18.3491V27.5278Z" fill="#939090"/>
<path fill-rule="evenodd" clip-rule="evenodd" d="M18.3491 21.8813H18.7136V25.0582H18.3491V21.8813Z" fill="#CFCFCF"/>
<path fill-rule="evenodd" clip-rule="evenodd" d="M18.3491 25.0581H18.7136V25.4113H18.3491V25.0581Z" fill="#939090"/>
<path fill-rule="evenodd" clip-rule="evenodd" d="M18.7021 25.0581H19.0661V25.4113H18.7021V25.0581Z" fill="#F6F6F6"/>
<path fill-rule="evenodd" clip-rule="evenodd" d="M18.7021 21.8813H19.0661V25.0582H18.7021V21.8813Z" fill="white"/>
<path fill-rule="evenodd" clip-rule="evenodd" d="M18.3491 21.5281H18.7136V21.8813H18.3491V21.5281Z" fill="#939090"/>
<path fill-rule="evenodd" clip-rule="evenodd" d="M18.3491 15.8821H18.7136V19.0583H18.3491V15.8821Z" fill="#CFCFCF"/>
<path fill-rule="evenodd" clip-rule="evenodd" d="M18.3491 19.0583H18.7136V19.4116H18.3491V19.0583Z" fill="#939090"/>
<path fill-rule="evenodd" clip-rule="evenodd" d="M18.7021 19.0583H19.0661V19.4116H18.7021V19.0583Z" fill="#F6F6F6"/>
<path fill-rule="evenodd" clip-rule="evenodd" d="M18.7021 15.8821H19.0661V19.0583H18.7021V15.8821Z" fill="white"/>
<path fill-rule="evenodd" clip-rule="evenodd" d="M18.3491 15.5283H18.7136V15.8821H18.3491V15.5283Z" fill="#939090"/>
<path fill-rule="evenodd" clip-rule="evenodd" d="M18.3491 9.88196H18.7136V13.0582H18.3491V9.88196Z" fill="#CFCFCF"/>
<path fill-rule="evenodd" clip-rule="evenodd" d="M18.3491 13.0583H18.7136V13.4121H18.3491V13.0583Z" fill="#939090"/>
<path fill-rule="evenodd" clip-rule="evenodd" d="M18.7021 13.0583H19.0661V13.4121H18.7021V13.0583Z" fill="#F6F6F6"/>
<path fill-rule="evenodd" clip-rule="evenodd" d="M18.7021 9.88196H19.0661V13.0582H18.7021V9.88196Z" fill="white"/>
<path fill-rule="evenodd" clip-rule="evenodd" d="M18.3491 9.52881H18.7136V9.88203H18.3491V9.52881Z" fill="#939090"/>
<path fill-rule="evenodd" clip-rule="evenodd" d="M18.3491 3.8822H18.7136V7.05901H18.3491V3.8822Z" fill="#CFCFCF"/>
<path fill-rule="evenodd" clip-rule="evenodd" d="M18.3491 7.05908H18.7136V7.4123H18.3491V7.05908Z" fill="#939090"/>
<path fill-rule="evenodd" clip-rule="evenodd" d="M18.7021 7.05908H19.0661V7.4123H18.7021V7.05908Z" fill="#F6F6F6"/>
<path fill-rule="evenodd" clip-rule="evenodd" d="M18.7021 3.8822H19.0661V7.05901H18.7021V3.8822Z" fill="white"/>
<path fill-rule="evenodd" clip-rule="evenodd" d="M18.3491 3.52905H18.7136V3.88227H18.3491V3.52905Z" fill="#939090"/>
<path d="M10.5572 15.2286C9.90032 15.2286 9.43457 14.7198 9.43457 14.0844C9.43457 13.4286 9.92132 12.9198 10.5992 12.9198C11.2987 12.9198 11.7439 13.4286 11.7439 14.0844C11.7649 14.7193 11.2987 15.2286 10.5572 15.2286ZM11.5318 27.2143H9.66772V16.9646H11.5318V27.2143ZM27.3781 14.5082V27.2149H25.5135V14.5082H21.1704V12.9419H31.7422V14.5082H27.3781ZM33.9024 15.2286C33.2461 15.2286 32.7798 14.7198 32.7798 14.0844C32.7798 13.4286 33.2665 12.9198 33.945 12.9198C34.6439 12.9198 35.0891 13.4286 35.0891 14.0844C35.1101 14.7193 34.6439 15.2286 33.9024 15.2286ZM34.8775 27.2143H33.0124V16.9646H34.8775V27.2143ZM44.8979 18.722C44.4532 18.4684 43.7537 18.2353 42.7361 18.2353C40.3847 18.2353 39.1135 19.9723 39.1135 22.1105C39.1135 24.4818 40.6389 25.9442 42.6731 25.9442C43.7322 25.9442 44.4311 25.6685 44.9615 25.4359L45.2786 26.8331C44.7913 27.0878 43.7112 27.4265 42.3339 27.4265C39.2405 27.4265 37.2278 25.3303 37.2278 22.1955C37.2278 19.0408 39.3891 16.754 42.7356 16.754C43.8377 16.754 44.8118 17.0292 45.3211 17.2823L44.8979 18.722ZM56.062 27.2143H53.7946L50.257 22.3011L49.304 23.3596V27.2143H47.4604V12.1794H49.304V21.6662H49.3455C49.6001 21.3066 49.9609 20.8613 50.2565 20.5016L53.2653 16.9651H55.5106L51.5493 21.1795L56.062 27.2143ZM65.6371 22.4287H58.4338C58.4763 24.9486 60.0863 25.9856 61.9504 25.9856C63.2852 25.9856 64.0907 25.753 64.789 25.4563L65.1073 26.7911C64.4498 27.0878 63.3272 27.4265 61.6968 27.4265C58.5399 27.4265 56.6543 25.3513 56.6543 22.2591C56.6543 19.1679 58.4763 16.7314 61.4636 16.7314C64.8111 16.7314 65.7001 19.6756 65.7001 21.5602C65.7006 21.9414 65.6586 22.2375 65.6371 22.4287ZM61.3156 18.0662C59.4299 18.0662 58.604 19.8027 58.4554 21.0939H63.8995C63.9216 19.9082 63.4128 18.0662 61.3156 18.0662ZM70.2553 18.3834V23.911C70.2553 25.1812 70.6155 25.9016 71.6536 25.9016C72.1409 25.9016 72.5011 25.8381 72.7343 25.774L72.8188 27.1723C72.4586 27.3204 71.8873 27.4265 71.1663 27.4265C70.2984 27.4265 69.5989 27.1508 69.1542 26.6431C68.6249 26.0928 68.4337 25.1817 68.4337 23.9745V18.3834H66.8448V16.9646H68.4337V14.5077L70.2558 14.0204V16.9646H72.9254V18.3834H70.2553Z" fill="#1D1D1B"/>
<path d="M40.5594 32.7038H37.6787C37.6954 33.7112 38.3388 34.1275 39.0846 34.1275C39.6182 34.1275 39.9407 34.0338 40.2202 33.9158L40.3472 34.4484C40.0845 34.5679 39.6354 34.703 38.9828 34.703C37.7202 34.703 36.9658 33.8728 36.9658 32.636C36.9658 31.3986 37.6949 30.4251 38.8891 30.4251C40.2282 30.4251 40.5841 31.6027 40.5841 32.3565C40.5852 32.5084 40.5685 32.6268 40.5594 32.7038ZM38.8315 30.9587C38.0766 30.9587 37.7466 31.6533 37.6868 32.1702H39.8643C39.8734 31.6959 39.6699 30.9587 38.8315 30.9587ZM42.7374 30.9835C42.2969 30.9835 42.0514 31.2371 42.0514 31.5424C42.0514 31.8816 42.2969 32.034 42.8311 32.2375C43.5429 32.5084 43.9069 32.8648 43.9069 33.4743C43.9069 34.0752 43.517 34.5334 42.8138 34.6605L42.5769 35.0417C42.8903 35.0837 43.1703 35.3034 43.1703 35.6254C43.1703 36.1256 42.7632 36.3108 42.2883 36.3108C42.0853 36.3108 41.8565 36.2527 41.7127 36.1671L41.8398 35.8025C41.9749 35.8876 42.144 35.9296 42.2975 35.9296C42.4838 35.9296 42.6615 35.8623 42.6615 35.6582C42.6534 35.4391 42.3992 35.3363 42.0008 35.3029L42.3395 34.702C41.9076 34.6934 41.5006 34.5916 41.2211 34.4225L41.408 33.8539C41.6282 33.9988 42.0186 34.1506 42.3912 34.1506C42.9334 34.1506 43.1875 33.8798 43.1875 33.5406C43.1875 33.1857 42.9759 32.9908 42.4251 32.7873C41.6874 32.5251 41.3401 32.118 41.3401 31.6269C41.3401 30.9663 41.8743 30.4241 42.7551 30.4241C43.1703 30.4241 43.5348 30.5425 43.7636 30.6787L43.5773 31.2204C43.4153 31.1192 43.1191 30.9835 42.7374 30.9835ZM45.7623 31.0858V33.2961C45.7623 33.8049 45.9066 34.0925 46.3218 34.0925C46.5167 34.0925 46.661 34.0666 46.7536 34.0413L46.7875 34.6007C46.6438 34.66 46.4149 34.702 46.1269 34.702C45.779 34.702 45.4996 34.5916 45.3214 34.3886C45.1092 34.1684 45.0333 33.8044 45.0333 33.3214V31.0853H44.3974V30.5172H45.0333V29.5346L45.7623 29.3402V30.5177H46.8301V31.0858H45.7623ZM48.0243 29.8237C47.7621 29.8237 47.5758 29.6196 47.5758 29.3655C47.5758 29.1033 47.7707 28.8997 48.041 28.8997C48.3216 28.8997 48.4998 29.1033 48.4998 29.3655C48.5084 29.6196 48.3216 29.8237 48.0243 29.8237ZM48.4147 34.6174H47.669V30.5177H48.4147V34.6174ZM53.1175 34.7111C52.0072 34.7111 51.1521 33.897 51.1521 32.6015C51.1521 31.2296 52.0497 30.4246 53.1853 30.4246C54.3634 30.4246 55.1603 31.2802 55.1603 32.5337C55.1603 34.051 54.1093 34.7111 53.1175 34.7111ZM53.1686 30.9835C52.2872 30.9835 51.9054 31.7971 51.9054 32.5767C51.9054 33.4743 52.4229 34.1517 53.1508 34.1517C53.8627 34.1517 54.3968 33.4835 54.3968 32.5595C54.3973 31.8644 54.05 30.9835 53.1686 30.9835ZM58.8465 34.6174V32.2537C58.8465 31.593 58.6009 31.0427 57.8967 31.0427C57.4056 31.0427 57.0238 31.3906 56.8968 31.8052C56.8629 31.8983 56.8462 32.0254 56.8462 32.153V34.6174H56.0999V31.628C56.0999 31.2037 56.0918 30.857 56.066 30.5177H56.7272L56.7697 31.1962H56.7864C56.9899 30.8058 57.4643 30.4246 58.1422 30.4246C58.7102 30.4246 59.5917 30.7638 59.5917 32.1697V34.6174H58.8465ZM60.8037 34.6174V28.6041H61.5494V34.618H60.8037V34.6174ZM63.1594 29.8237C62.8972 29.8237 62.7098 29.6196 62.7098 29.3655C62.7098 29.1033 62.9047 28.8997 63.1761 28.8997C63.4555 28.8997 63.6338 29.1033 63.6338 29.3655C63.6424 29.6196 63.4555 29.8237 63.1594 29.8237ZM63.5487 34.6174H62.8029V30.5177H63.5487V34.6174ZM67.5315 34.6174V32.2537C67.5315 31.593 67.286 31.0427 66.5828 31.0427C66.0907 31.0427 65.71 31.3906 65.5829 31.8052C65.549 31.8983 65.5318 32.0254 65.5318 32.153V34.6174H64.786V31.628C64.786 31.2037 64.7769 30.857 64.7521 30.5177H65.4122L65.4553 31.1962H65.472C65.6755 30.8058 66.1499 30.4246 66.8283 30.4246C67.3964 30.4246 68.2767 30.7638 68.2767 32.1697V34.6174H67.5315ZM72.7856 32.7038H69.9039C69.9206 33.7112 70.5657 34.1275 71.3109 34.1275C71.8444 34.1275 72.1659 34.0338 72.4464 33.9158L72.5735 34.4484C72.3102 34.5679 71.8611 34.703 71.208 34.703C69.9454 34.703 69.1921 33.8728 69.1921 32.636C69.1921 31.3986 69.9206 30.4251 71.1154 30.4251C72.454 30.4251 72.8099 31.6027 72.8099 32.3565C72.811 32.5084 72.7937 32.6268 72.7856 32.7038ZM71.0567 30.9587C70.3024 30.9587 69.9717 31.6533 69.9125 32.1702H72.0911C72.0986 31.6959 71.8956 30.9587 71.0567 30.9587Z" fill="white"/>
<defs>
<linearGradient id="paint0_linear" x1="43.0756" y1="41.9987" x2="43.0756" y2="0.00052569" gradientUnits="userSpaceOnUse">
<stop stop-color="#FF8F00"/>
<stop offset="1" stop-color="#FFA300"/>
</linearGradient>
<linearGradient id="paint1_linear" x1="9.18032" y1="42.0006" x2="9.18032" y2="0.00242889" gradientUnits="userSpaceOnUse">
<stop stop-color="#FF8F00"/>
<stop offset="1" stop-color="#FFA300"/>
</linearGradient>
</defs>
</svg>