<svg width="20" height="14" viewBox="0 0 20 14" fill="none" xmlns="http://www.w3.org/2000/svg">
<path fill-rule="evenodd" clip-rule="evenodd" d="M0 2.10209C0 1.00162 0.895 0.0446777 2 0.0446777H18C19.105 0.0446777 20 1.00162 20 2.10209V12.0702C20 13.1717 19.105 14 18 14H2C0.895 14 0 13.1717 0 12.0702V2.10209ZM18 11.0096C18 11.5598 17.552 12.0064 17 12.0064H3C2.448 12.0064 2 11.5598 2 11.0096V6H18V11.0096ZM18 4V3.03512C18 2.48488 17.552 2.03831 17 2.03831H3C2.448 2.03831 2 2.48488 2 3.03512V4H18Z" fill="#889CC2"/>
</svg>