<svg width="20" height="20" viewBox="0 0 20 20" fill="none" xmlns="http://www.w3.org/2000/svg">
<path fill-rule="evenodd" clip-rule="evenodd" d="M2 18H18V2H2V18ZM0 19C0 19.5523 0.447715 20 1 20H19C19.5523 20 20 19.5523 20 19V1C20 0.447715 19.5523 0 19 0H1C0.447715 0 0 0.447715 0 1V19ZM4 11C4 11.5523 4.44772 12 5 12H15C15.5523 12 16 11.5523 16 11C16 10.4477 15.5523 10 15 10H5C4.44771 10 4 10.4477 4 11ZM4 15C4 15.5523 4.44772 16 5 16H15C15.5523 16 16 15.5523 16 15C16 14.4477 15.5523 14 15 14H5C4.44771 14 4 14.4477 4 15Z" fill="#889CC2"/>
</svg>