<svg width="20" height="21" viewBox="0 0 20 21" fill="none" xmlns="http://www.w3.org/2000/svg">
<path fill-rule="evenodd" clip-rule="evenodd" d="M16.5625 18.049H3.43817C2.73178 18.049 2.21015 17.352 2.47658 16.7111C3.71277 13.747 6.61693 12.049 9.99985 12.049C13.3838 12.049 16.288 13.747 17.5241 16.7111C17.7906 17.352 17.2689 18.049 16.5625 18.049ZM5.91666 6.04905C5.91666 3.84305 7.74899 2.04905 9.99985 2.04905C12.2517 2.04905 14.083 3.84305 14.083 6.04905C14.083 8.25505 12.2517 10.049 9.99985 10.049C7.74899 10.049 5.91666 8.25505 5.91666 6.04905ZM19.9557 17.685C19.2136 14.326 16.8923 11.847 13.837 10.722C15.456 9.44505 16.4002 7.38005 16.0532 5.11905C15.651 2.49605 13.4236 0.397049 10.7348 0.0910492C7.02321 -0.331951 3.87507 2.49805 3.87507 6.04905C3.87507 7.93905 4.76929 9.62305 6.1637 10.722C3.10743 11.847 0.787164 14.326 0.044024 17.685C-0.225466 18.906 0.778997 20.049 2.05397 20.049H17.9457C19.2217 20.049 20.2262 18.906 19.9557 17.685Z" fill="#889CC2"/>
</svg>