<svg width="20" height="21" viewBox="0 0 20 21" fill="none" xmlns="http://www.w3.org/2000/svg">
<path d="M2.39405 1.29289C2.58158 1.10536 2.83594 1 3.10115 1H10H16.8988C17.1641 1 17.4184 1.10536 17.606 1.29289L18.7071 2.39405C18.8946 2.58158 19 2.83594 19 3.10115V10V16.8988C19 17.1641 18.8946 17.4184 18.7071 17.606L17.606 18.7071C17.4184 18.8946 17.1641 19 16.8988 19H10H3.10115C2.83594 19 2.58158 18.8946 2.39405 18.7071L1.29289 17.606C1.10536 17.4184 1 17.1641 1 16.8988V10V3.10115C1 2.83594 1.10536 2.58158 1.29289 2.39405L2.39405 1.29289Z" stroke="black" stroke-width="2"/>
<path d="M7.50102 4.5C6.12293 4.5 5.00146 5.62147 5.00146 6.99955C5.00146 8.37764 6.12293 9.4991 7.50102 9.4991C8.8791 9.4991 10.0006 8.37764 10.0006 6.99955C10.0006 5.62147 8.8791 4.5 7.50102 4.5ZM7.50102 7.83274C7.0411 7.83274 6.66783 7.45947 6.66783 6.99955C6.66783 6.53963 7.0411 6.16637 7.50102 6.16637C7.96093 6.16637 8.3342 6.53963 8.3342 6.99955C8.3342 7.45947 7.96093 7.83274 7.50102 7.83274Z" fill="black"/>
<path d="M12.5003 11.1655C11.1222 11.1655 10.0007 12.2869 10.0007 13.665C10.0007 15.0431 11.1222 16.1646 12.5003 16.1646C13.8784 16.1646 14.9998 15.0431 14.9998 13.665C14.9998 12.2869 13.8784 11.1655 12.5003 11.1655ZM12.5003 14.4982C12.0404 14.4982 11.6671 14.1249 11.6671 13.665C11.6671 13.2051 12.0404 12.8318 12.5003 12.8318C12.9602 12.8318 13.3335 13.2051 13.3335 13.665C13.3335 14.1249 12.9602 14.4982 12.5003 14.4982Z" fill="black"/>
<path d="M14.6998 4.69328C14.3449 4.39834 13.8217 4.44666 13.525 4.79993L5.19322 14.7982C4.89828 15.1514 4.9466 15.678 5.29987 15.9729C5.45651 16.1013 5.64647 16.1646 5.83477 16.1646C6.07473 16.1646 6.31135 16.0629 6.47632 15.8646L14.8082 5.86641C15.1014 5.51314 15.0531 4.98657 14.6998 4.69328Z" fill="black"/>
</svg>